<svg width="132" height="99" viewBox="0 0 132 99" fill="none" xmlns="http://www.w3.org/2000/svg">
<path d="M131.062 95.0456C131.209 95.3399 131.192 95.6746 131.048 95.9451C130.7 96.6429 129.9 97.3359 129.091 97.7678C128.707 97.9719 128.312 98.1286 127.955 98.2069C127.479 98.3113 127.022 98.2971 126.641 98.1191C126.357 97.9862 126.13 97.7797 125.974 97.4878C123.316 92.4824 120.713 87.3109 118.057 82.035C116.815 79.5644 115.558 77.07 114.282 74.5661C97.8671 78.634 87.3899 74.2979 80.5621 67.0166C73.7863 59.7898 70.6907 49.6983 68.9394 42.1013C68.7548 41.3039 68.608 40.5847 68.4731 39.9297C68.2365 38.7834 68.0448 37.8412 67.7253 36.8918C67.6046 36.8657 67.4862 36.8396 67.3679 36.8135C67.2851 36.7945 67.2117 36.7613 67.1478 36.7162C66.2437 36.9203 65.148 37.3095 63.8913 37.7581C56.5759 40.3617 44.2456 44.7523 26.6494 28.7655C24.659 27.2442 21.8758 26.5133 19.0784 25.7775C13.7653 24.382 8.40002 22.9722 6.92322 16.4029C6.60372 14.9836 5.41092 13.9061 4.18735 12.8001C2.93775 11.6728 1.65975 10.517 0.935554 8.83904C0.85982 8.68715 0.82432 8.51152 0.83852 8.33115C0.88112 7.79477 1.34735 7.39605 1.88222 7.43877C9.32539 8.00363 14.0824 5.99579 18.8891 3.96659C28.4599 -0.0728252 38.2248 -4.19293 68.3027 9.9996V10.002C68.324 10.0115 68.3453 10.0233 68.3643 10.0328C69.0885 10.441 69.8056 10.8706 70.5179 11.3073C70.5676 11.3334 70.6173 11.3619 70.6647 11.3975C70.9889 11.5992 71.3131 11.8057 71.635 12.0122C71.6587 12.0241 71.6823 12.0359 71.706 12.0502C77.7978 15.7407 85.7403 18.3086 93.7491 20.8979C112.64 27.0069 131.905 33.2345 130.075 54.6562C130.073 54.6823 130.07 54.7085 130.066 54.7346C129.469 59.2534 127.976 63.1124 126.097 66.1076C124.163 69.1905 121.799 71.3835 119.548 72.4728C123.429 79.7566 127.02 86.9478 130.378 93.6691L131.064 95.0432L131.062 95.0456ZM84.0363 21.852C84.1452 21.5364 84.2541 21.2089 84.3582 20.879C84.4576 20.5657 84.557 20.2453 84.6493 19.9249C83.0447 19.36 81.4661 18.7786 79.9302 18.1686C81.3241 19.3458 82.6921 20.5752 84.0363 21.852ZM85.7971 20.3236C85.7072 20.6345 85.6125 20.943 85.5155 21.2445C85.3404 21.7927 85.1652 22.3125 84.9996 22.7776C86.5261 24.2657 88.0242 25.8179 89.4891 27.4199C89.8678 26.5156 90.2039 25.5758 90.4784 24.617C91.5505 20.8837 89.6572 21.6503 85.7971 20.3236ZM92.2108 22.4477C92.0735 23.2879 91.8795 24.1281 91.6428 24.9516C91.2996 26.1454 90.8689 27.3083 90.3837 28.4072C91.6878 29.8668 92.9705 31.3667 94.2272 32.9023C94.9325 31.6112 95.588 30.1587 96.1063 28.6398C97.9192 23.3187 96.724 23.9239 93.1527 22.7515L92.2108 22.4477ZM95.1384 33.7638C95.11 33.816 95.0745 33.8611 95.0342 33.9014C96.0827 35.2044 97.1122 36.5311 98.1275 37.8815C99.5049 36.0161 100.752 33.9275 101.602 31.7275C103.509 25.9413 102.423 25.749 98.3192 24.4437C98.1417 25.9911 97.7606 27.5457 97.2542 29.0337C96.6767 30.7307 95.9312 32.3469 95.1384 33.7662V33.7638ZM103.961 26.4136C103.907 28.3739 103.452 30.3082 102.735 32.1618C101.798 34.5873 100.409 36.8752 98.8848 38.8949C99.919 40.2928 100.939 41.7121 101.94 43.1503C103.699 41.3798 105.502 39.3696 106.858 37.1268C109.887 29.8597 110.283 28.7561 103.961 26.4159V26.4136ZM110.283 28.9958C110.489 32.2354 109.469 35.1522 107.897 37.7557C106.437 40.1694 104.506 42.3007 102.645 44.1661C103.635 45.6043 104.61 47.0592 105.568 48.5307C107.767 46.511 110.018 44.2373 111.75 41.5792C112.304 40.7319 112.877 39.8727 113.234 38.9092C115.399 33.0874 115.688 31.4664 110.285 28.9981L110.283 28.9958ZM116.062 32.036C115.97 35.9995 114.652 39.3459 112.763 42.2413C110.919 45.068 108.541 47.4508 106.236 49.5607C107.189 51.0417 108.129 52.5345 109.052 54.0392C112.086 51.5068 115.13 48.3622 117.264 44.7761C120.634 38.7454 120.852 35.2044 116.062 32.0384V32.036ZM121.352 36.009C121.174 39.3696 120.017 42.5238 118.308 45.3955C116.062 49.1691 112.862 52.4562 109.693 55.0834C110.612 56.5929 111.513 58.1094 112.403 59.6331C115.447 57.3666 118.526 54.8081 120.928 51.8059C125.041 45.7752 127.159 41.4463 121.354 36.009H121.352ZM126.411 42.9533C125.787 46.6154 124.102 49.779 121.872 52.5653C119.356 55.7076 116.159 58.3563 113.016 60.6916C113.676 61.8332 114.327 62.9771 114.973 64.1211C117.844 62.773 120.573 61.1639 122.909 58.9615C124.627 57.3405 126.139 55.392 127.353 52.9759C128.932 49.8313 127.798 46.0363 126.414 42.9533H126.411ZM128.17 54.0415C126.939 56.3508 125.434 58.2471 123.74 59.8467C121.311 62.137 118.509 63.8007 115.572 65.1867C116.609 67.045 117.626 68.9034 118.625 70.7593C120.575 69.8479 122.682 67.8852 124.45 65.0704C126.196 62.2865 127.583 58.6956 128.139 54.4806C128.151 54.3335 128.16 54.1887 128.17 54.0415ZM64.9208 10.5787C62.4973 9.90941 60.1306 9.55579 57.79 9.20691C54.5311 8.72275 51.3172 8.24333 48.0322 6.95699C49.696 9.03128 50.5646 9.50357 53.0543 10.6641C57.1013 12.5533 61.0252 13.1253 64.9255 13.6949C67.304 14.0414 69.673 14.3879 72.0681 15.0216C71.2445 14.3357 70.4091 13.6593 69.5594 12.9995C68.866 12.5723 68.1678 12.1546 67.4626 11.7559C66.5987 11.3477 65.7515 10.9561 64.9208 10.5787ZM45.391 4.35107C49.6558 6.76949 53.7738 7.38181 57.9651 8.006C58.4882 8.08432 59.0136 8.16264 59.5413 8.24333C53.1916 5.62792 47.947 3.99507 43.5095 3.07896C44.1651 3.46107 44.7923 3.88352 45.391 4.35107ZM74.4016 17.0318C71.1711 15.838 67.9714 15.3705 64.7551 14.9005C60.0715 14.217 55.3571 13.5287 50.3942 10.6499C52.8318 14.5754 53.4093 15.1165 57.8302 16.6521C61.9601 18.0879 66.2201 18.6504 70.2694 19.1868C73.0053 19.5475 75.6489 19.8988 78.1126 20.4921C76.9032 19.3102 75.6678 18.1567 74.3993 17.0318H74.4016ZM79.8663 22.2413C76.9269 21.2895 73.597 20.8505 70.1156 20.3901C65.1645 19.735 59.9034 19.0396 54.879 16.7897C57.8302 20.4257 57.7971 20.8434 62.3671 22.2294C67.2732 23.7151 72.5178 24.3108 77.1446 24.8377C79.2557 25.0774 81.2413 25.3029 83.0163 25.5924C81.9892 24.4556 80.9384 23.3377 79.8663 22.2413ZM84.3274 27.0639C82.2353 26.6367 79.7266 26.3519 77.0073 26.0433C71.6492 25.4358 65.4722 24.7333 59.8703 22.6756C64.5066 28.0417 63.5386 28.3099 70.757 29.7054C77.0239 30.9158 83.5843 31.2504 87.991 31.4379C86.8006 29.9546 85.5794 28.495 84.3274 27.0639ZM88.9898 32.6982L88.8099 32.691C83.3382 32.4632 73.7816 32.0645 65.7586 29.7766C66.3881 30.6049 66.9727 31.4166 67.5004 32.2093C71.519 37.0865 74.6146 37.1363 82.8672 37.7462C86.8503 38.0405 90.4737 38.0999 92.8309 37.8293C91.586 36.092 90.3056 34.3809 88.9898 32.7005V32.6982ZM93.6284 38.9471C91.2002 39.3221 87.1935 39.2842 82.7796 38.959C78.522 38.6434 73.8668 38.0619 69.8837 37.3214C70.0635 38.0097 70.2103 38.7288 70.3759 39.5405C71.2374 43.7365 79.4592 43.7626 83.0352 44.1091C88.3673 44.6242 93.5172 44.4557 97.0151 43.9335C95.9146 42.2532 94.7857 40.5895 93.6308 38.9495L93.6284 38.9471ZM97.7393 45.049C94.1586 45.6471 88.6324 45.8678 82.9145 45.3148C78.877 44.9256 74.7401 44.1495 71.112 42.8537C72.6763 49.3162 78.2759 49.3186 84.7369 49.9499C90.6961 50.5338 96.5655 50.1493 100.56 49.5417C99.6374 48.0323 98.6978 46.5323 97.7393 45.0466V45.049ZM101.242 50.6667C97.1666 51.3312 90.9399 51.7821 84.6185 51.1627C80.4745 50.7569 76.2831 49.8906 72.6172 48.3242C74.7495 55.1475 80.2402 55.6032 87.1603 56.3389C93.4462 57.0058 99.7889 56.5003 104.286 55.85C103.292 54.1127 102.279 52.3826 101.244 50.6667H101.242ZM104.929 56.9869C100.347 57.6775 93.671 58.2518 87.0325 57.547C82.7512 57.0913 78.4865 56.1063 74.7969 54.2765C76.9931 59.4076 78.0179 60.1719 83.6624 61.7003C91.7706 63.8956 100.963 62.455 107.393 61.4226C106.584 59.9393 105.765 58.4607 104.929 56.9869ZM108.006 62.5547C107.225 62.6781 108.349 62.4977 107.8 62.5855C99.8977 63.8576 87.7686 65.8085 78.3019 60.9479C79.3835 62.6235 80.5999 64.2184 81.9726 65.6851C87.9816 72.0955 101.758 68.4026 109.156 66.1764C109.405 66.1004 109.632 66.034 109.835 65.9723C109.232 64.8307 108.624 63.6915 108.006 62.5523V62.5547ZM110.413 67.0711C110.157 67.1447 109.852 67.2373 109.502 67.3417C105.448 68.5616 95.5407 71.5401 86.6965 69.7079C92.8853 73.8351 101.436 75.6436 113.371 72.7814C112.398 70.8803 111.412 68.9746 110.41 67.0688L110.413 67.0711ZM50.0226 13.6094C49.9895 13.6189 49.954 13.6261 49.9161 13.6308L18.7376 16.315C18.4749 16.3411 18.2383 16.1537 18.2075 15.8878C18.1744 15.622 18.3661 15.3776 18.6311 15.3467L48.728 11.6467C48.4369 11.1768 48.16 10.7092 47.9044 10.2464C46.2501 7.26077 43.7912 5.19123 40.8731 3.92149C37.6994 2.54021 33.9766 2.09403 30.145 2.44053C26.0625 3.05285 22.8391 4.4104 19.6417 5.76083C15.0267 7.70933 10.4567 9.63648 3.59332 9.46797C4.14475 10.142 4.81925 10.7519 5.48429 11.3524C6.94689 12.6743 8.37162 13.9583 8.82365 15.9733C10.0425 21.3892 14.8279 22.6471 19.5707 23.8931C22.574 24.681 25.5607 25.4666 27.8611 27.2371C27.8824 27.2537 27.9014 27.2703 27.9203 27.287C44.6739 42.5285 56.3321 38.3775 63.2452 35.9164C64.5871 35.4394 65.7609 35.0217 66.807 34.7938C66.5514 34.3263 66.2508 33.8302 65.8887 33.2867C63.9102 30.313 61.0678 27.0259 58.1521 23.651C55.2766 20.326 52.3325 16.9179 50.0273 13.6094H50.0226ZM129.072 95.4064L128.639 94.5425C118.545 74.3335 106.318 49.8597 90.5494 31.5376C102.487 46.791 111.4 64.4984 119.787 81.1569C122.407 86.3616 124.975 91.4643 127.54 96.3035C127.734 96.2608 127.957 96.1706 128.182 96.0495C128.523 95.8668 128.847 95.6366 129.072 95.404V95.4064Z" fill="black"/>
</svg>
