<svg width="78" height="90" viewBox="0 0 78 90" fill="none" xmlns="http://www.w3.org/2000/svg">
<path d="M66.38 22.06C68.16 20.43 69.28 18.09 69.28 15.48C69.28 10.59 65.35 6.61 60.52 6.61C55.69 6.61 51.76 10.59 51.76 15.48C51.76 18.09 52.88 20.43 54.65 22.05C54.35 22.15 54.05 22.28 53.75 22.39C51.65 19.1 48.49 16.64 44.84 15.45C46.62 13.83 47.74 11.48 47.74 8.87C47.76 3.98 43.83 0 39 0C34.17 0 30.24 3.98 30.24 8.87C30.24 11.48 31.36 13.82 33.14 15.45C29.49 16.64 26.34 19.1 24.23 22.39C23.93 22.27 23.63 22.14 23.33 22.04C25.14 20.38 26.24 17.99 26.24 15.47C26.24 10.58 22.31 6.6 17.47 6.6C12.64 6.6 8.72 10.58 8.72 15.47C8.72 18 9.81 20.39 11.63 22.05C4.81 24.29 0 30.85 0 38.23V39.13C0 41.99 2.3 44.32 5.13 44.32H11.1C10.58 69.53 19.86 84.87 38.79 89.97C38.92 90 39.06 90 39.19 89.97C58.12 84.87 67.4 69.53 66.88 44.32H72.85C75.68 44.32 77.98 41.99 77.98 39.13V38.23C78 30.85 73.2 24.3 66.38 22.06ZM53.33 15.48C53.33 11.46 56.56 8.19 60.53 8.19C64.5 8.19 67.73 11.46 67.73 15.48C67.73 19.5 64.5 22.77 60.53 22.77C56.56 22.77 53.33 19.5 53.33 15.48ZM31.8 8.87C31.8 4.85 35.03 1.58 39 1.58C42.97 1.58 46.2 4.85 46.2 8.87C46.2 12.89 42.97 16.16 39 16.16C35.03 16.16 31.8 12.89 31.8 8.87ZM34.77 16.64C37.24 18.1 40.76 18.1 43.23 16.64C46.94 17.53 50.19 19.83 52.32 23.04C51.02 23.7 49.82 24.53 48.73 25.52C45.23 23.43 42.15 21.14 39.49 19.02C39.21 18.79 38.81 18.79 38.52 19.02C35.86 21.14 32.77 23.43 29.28 25.52C28.19 24.53 26.99 23.7 25.69 23.04C27.81 19.83 31.07 17.52 34.77 16.64ZM10.28 15.47C10.28 11.45 13.51 8.18 17.47 8.18C21.44 8.18 24.68 11.45 24.68 15.47C24.68 18.01 23.35 20.4 21.2 21.71C18.98 23.08 16.01 23.09 13.76 21.71C11.61 20.41 10.28 18.02 10.28 15.47ZM1.56 39.13V38.23C1.56 31.13 6.47 24.87 13.26 23.23C15.82 24.71 19.14 24.71 21.69 23.23C23.91 23.74 26.08 24.84 27.84 26.34C23.39 28.83 18.32 30.94 12.6 31.93C12.26 31.99 12 32.27 11.96 32.61C11.53 36.15 11.29 39.51 11.17 42.74H5.13C3.16 42.74 1.56 41.12 1.56 39.13ZM39 88.39C18.44 82.75 9.84 64.24 13.44 33.38C19.49 32.25 24.8 29.92 29.42 27.23C29.53 27.19 29.64 27.14 29.73 27.05C33.22 25 36.32 22.75 39 20.63C41.68 22.74 44.78 24.99 48.27 27.05C48.36 27.14 48.47 27.2 48.58 27.23C53.2 29.92 58.51 32.25 64.56 33.38C68.16 64.25 59.56 82.75 39 88.39ZM76.44 39.13C76.44 41.12 74.84 42.75 72.87 42.75H66.83C66.71 39.52 66.47 36.16 66.04 32.62C66 32.27 65.74 32 65.4 31.94C59.68 30.95 54.6 28.85 50.16 26.35C51.91 24.85 54.08 23.76 56.29 23.24C58.77 24.71 62.29 24.71 64.77 23.24C71.55 24.89 76.45 31.14 76.45 38.23V39.13H76.44Z" fill="black"/>
<path d="M61.7199 34.97C52.2999 33.34 44.8899 28.19 39.4799 23.88C39.1999 23.65 38.7999 23.65 38.5099 23.88C33.0999 28.19 25.6899 33.34 16.2699 34.97C15.9299 35.03 15.6699 35.31 15.6299 35.65C12.2699 63.42 20.0699 80.05 38.7899 85.1C38.9199 85.13 39.0599 85.13 39.1899 85.1C57.9199 80.05 65.7099 63.42 62.3499 35.65C62.3199 35.31 62.0599 35.03 61.7199 34.97ZM38.9999 83.52C21.4199 78.68 14.0599 62.83 17.1099 36.42C26.3299 34.68 33.5999 29.76 38.9999 25.51C44.3999 29.76 51.6699 34.69 60.8899 36.43C63.9399 62.84 56.5799 78.68 38.9999 83.52Z" fill="black"/>
<path d="M53.0499 47.7H45.6399V40.18C45.6399 39.74 45.2899 39.39 44.8599 39.39H33.1499C32.7199 39.39 32.3699 39.74 32.3699 40.18V47.7H24.9599C24.5299 47.7 24.1799 48.05 24.1799 48.49V60.36C24.1799 60.8 24.5299 61.15 24.9599 61.15H32.3699V68.67C32.3699 69.11 32.7199 69.46 33.1499 69.46H44.8599C45.2899 69.46 45.6399 69.11 45.6399 68.67V61.15H53.0499C53.4799 61.15 53.8299 60.8 53.8299 60.36V48.49C53.8299 48.05 53.4799 47.7 53.0499 47.7ZM52.2699 59.57H44.8599C44.4299 59.57 44.0799 59.92 44.0799 60.36V67.88H33.9299V60.36C33.9299 59.92 33.5799 59.57 33.1499 59.57H25.7399V49.28H33.1499C33.5799 49.28 33.9299 48.93 33.9299 48.49V40.97H44.0799V48.49C44.0799 48.93 44.4299 49.28 44.8599 49.28H52.2699V59.57Z" fill="black"/>
</svg>
