<svg width="91" height="407" viewBox="0 0 91 407" fill="none" xmlns="http://www.w3.org/2000/svg">
<path d="M89.2844 108.282C88.4387 101.125 84.8662 77.3782 74.0796 72.9634H74.0969C70.1102 70.687 66.4168 67.9451 63.0859 64.7889L60.7388 62.754V62.7712C58.081 60.9259 56.1828 58.1838 55.406 55.0453C54.4223 52.9414 54.0081 50.6305 54.2152 48.337C55.1817 47.0091 56.2517 45.6467 56.4761 45.4225H56.4588C56.6142 45.2845 56.7004 45.1121 56.735 44.9224C59.1857 43.5083 60.9633 41.1801 61.7226 38.4379C62.7064 36.127 62.7064 33.5057 61.7226 31.1949C63.8109 26.2283 64.2251 20.7098 62.8617 15.4844C62.0678 9.08644 57.5634 3.79219 51.3846 1.98123C51.3501 1.70531 51.212 1.46386 50.9877 1.30868C44.7399 -1.01943 37.7504 -0.208913 32.2104 3.48161C30.3465 5.17164 28.3963 6.79272 26.3771 8.29287C21.3033 12.0869 19.1803 13.6388 20.6299 23.5721V23.5549C20.3711 25.0207 20.3711 26.5211 20.6299 27.9697C20.699 28.418 20.8888 28.8492 21.1649 29.2113C21.1477 29.3148 21.1477 29.4183 21.1649 29.5218C20.6817 31.9016 19.836 38.5757 22.2177 41.4038C22.8908 42.2488 23.9263 42.7489 24.9963 42.7145C25.6176 49.078 27.0674 53.6654 30.4329 55.9589C30.9334 56.3038 31.4684 56.5625 32.0207 56.7522C31.9172 57.3213 31.9172 57.8904 32.0207 58.4422C32.9181 61.7706 32.8146 65.2887 31.7273 68.5482C28.4655 70.4107 17.541 76.8948 14.7103 83.1206C13.7093 85.3453 13.226 87.7769 13.2951 90.2258C12.7946 97.8484 11.4139 105.402 9.13577 112.696C9.03221 113.369 9.03221 114.059 9.13577 114.731C8.60077 123.664 7.2546 132.528 5.11452 141.22C5.09726 141.841 5.09726 142.445 5.11452 143.065C4.40691 151.826 3.21608 160.535 1.59377 169.158C-1.2366 186.421 0.230368 190.783 1.93894 192.336V192.784H1.85265C0.748106 201.717 0.213115 210.702 0.264852 219.704C0.575507 248.642 4.26882 277.424 11.2586 305.502C13.6057 315.09 20.0949 338.958 28.9313 352.652C29.38 356.532 29.6389 359.723 29.6907 361.792C28.0166 362.499 27.1364 364.172 26.9983 367.931C26.9983 370.001 28.1029 370.759 30.0876 371.156V371.139C29.7597 373.088 29.0348 374.933 27.9648 376.571C27.6024 377.416 27.378 378.313 27.309 379.227C27.309 380.072 26.9638 381.262 26.6014 382.987V382.969C26.5841 383.262 26.5841 383.538 26.6014 383.814C25.1171 383.331 23.5121 383.987 22.7872 385.366L21.8553 386.815C17.4371 393.437 17.4371 394.145 12.3633 396.3L11.3105 396.558V396.576C8.7735 396.852 6.46068 398.128 4.90769 400.145C3.94121 401.991 3.82042 404.164 4.54526 406.113C4.64881 406.475 4.97673 406.716 5.33917 406.733H6.44371C17.3336 406.561 28.1551 404.923 38.6133 401.87C39.7696 401.56 53.0585 396.214 52.7996 391.937C52.7996 388.764 52.0402 386.901 50.9875 386.504C50.6596 386.418 50.3316 386.418 50.0037 386.504C50.0037 385.797 49.4342 385.056 49.0717 384.211C50.9702 384.211 52.7823 384.469 54.5428 384.469H54.56C61.584 384.659 68.5568 383.141 74.8907 380.054C75.8227 379.261 76.1678 377.623 76.047 375.157H76.0298C75.7019 370.776 74.1831 366.586 71.6116 363.016C71.2146 362.395 70.6451 361.567 70.0238 360.55C67.7802 357.566 65.8991 354.342 64.415 350.927V350.668C65.6921 349.513 65.3469 348.513 64.415 347.219C64.0871 346.616 63.8109 345.995 63.5693 345.357C63.4312 344.477 62.8444 343.718 62.0333 343.322H61.6881C61.6881 343.322 61.0668 342.304 59.0303 338.424V337.665V337.682C58.9785 325.369 58.2709 313.056 56.9075 300.812C56.5968 297.449 56.1999 293.534 55.7512 288.619C54.7329 277.72 57.1663 252.059 59.1166 231.487C60.9287 212.724 61.55 205.533 60.877 204.205C61.6709 202.756 62.4648 201.239 63.3967 199.79V199.807C66.1925 195.582 68.091 190.84 69.0055 185.855C69.1781 186.062 69.437 186.183 69.7132 186.166C70.0066 186.149 70.2654 185.959 70.3862 185.683C71.5771 183.027 72.5435 180.82 73.3547 178.888C76.0471 172.576 77.1516 170.059 80.7759 168.162C83.1231 167.006 82.6744 164.316 82.4155 162.505H82.3982C82.2947 161.919 82.2947 161.315 82.3982 160.729C85.4702 158.073 86.3159 153.658 84.4692 150.054C83.7616 148.019 83.589 147.312 84.4692 146.605C90.2164 143.07 91.0967 124.527 89.2844 108.282ZM59.5134 63.8733L60.3073 64.5286C57.2698 66.7188 53.9562 68.4951 50.4525 69.8229C44.8092 71.9441 38.6821 72.4442 32.7798 71.237C34.661 66.8739 35.0234 62.0109 33.7981 57.4235C33.7808 57.1648 33.7808 56.9234 33.7981 56.6646C34.4194 56.7164 35.0407 56.7164 35.6448 56.6646C39.8731 56.3887 43.9805 55.2678 47.7603 53.3535C49.4861 52.3016 51.1257 51.1116 52.6618 49.7838C52.9207 51.629 53.3694 53.457 53.9907 55.2162C54.7501 58.648 56.7175 61.718 59.5134 63.8733ZM31.1058 54.026C26.912 51.284 26.0665 43.4376 26.0665 32.4866V32.4694C26.0665 31.2967 24.2889 31.2967 24.2889 32.4694C24.2889 35.3838 24.2889 38.1256 24.5477 40.5917L24.565 40.609C24.0645 40.5572 23.5985 40.3158 23.2879 39.9364C21.9417 36.8668 21.6656 33.4347 22.494 30.1757C23.3742 28.7788 24.6686 27.6579 26.2045 27.0026C28.5172 26.1058 29.9842 23.7949 29.8116 21.3114C30.1222 17.5347 31.9689 14.034 34.9375 11.6885C37.5608 9.96394 40.8398 9.58453 43.7739 10.671C43.9982 10.7055 44.2226 10.7055 44.447 10.671C45.2063 13.2061 47.5017 14.9651 50.1424 15.0858C52.0754 15.3272 53.9393 15.9998 55.579 17.069L56.0277 17.4139L55.7171 17.9485C55.7171 18.2072 55.3719 18.5694 55.1821 18.966C53.3182 22.0184 52.6796 25.6743 53.4217 29.158C53.646 30.6239 53.7841 32.107 53.8531 33.5728C53.9049 33.9005 54.1293 34.1764 54.4227 34.2799C54.6988 34.4524 55.044 34.4524 55.3201 34.2799C55.51 34.073 55.6825 33.8143 55.8034 33.5384C56.0622 32.9693 56.511 32.038 58.6337 31.3827C59.4276 31.124 59.9626 31.1585 60.3078 31.3827V31.3655C61.1707 33.4004 61.0499 35.7113 59.9972 37.6429C58.9444 40.7298 57.0805 43.0237 55.579 43.2131C55.0957 43.2475 54.7506 43.6959 54.8196 44.1788C54.1638 44.9721 53.0592 46.4724 52.3861 47.4037H52.4034C50.6948 49.0937 48.7964 50.5768 46.7429 51.8185C39.0972 55.3021 34.1955 56.0093 31.1058 54.026ZM28.3618 368.445C28.5861 364.03 29.2419 363.461 32.7799 363.461H35.8692C41.8753 363.323 47.8637 363.806 53.7664 364.875V365.634C53.7664 365.979 54.1115 368.686 53.1968 369.652V369.635C52.5065 370.187 51.609 370.394 50.7634 370.204C49.2791 370.169 47.7949 370.273 46.3452 370.514C43.4285 371.049 40.4257 371.049 37.5088 370.514L32.7801 370.307C28.8106 369.807 28.3618 369.6 28.3618 368.445ZM28.3618 382.845V382.224C28.379 382.155 28.379 382.069 28.3618 382C28.3618 381.292 28.3618 380.723 28.6724 380.24C28.7242 379.499 28.8795 378.757 29.1557 378.068C30.3638 376.24 31.1404 374.153 31.451 371.98H32.4175L37.198 372.722C38.4233 372.946 39.6659 373.049 40.9085 373.032H43.9633V374.791V376.033C44.3603 379.206 45.3095 382.276 46.7419 385.138C46.7432 385.141 46.7445 385.144 46.7458 385.146C47.5899 386.954 48.3291 388.537 47.8983 389.243C47.4496 389.95 46.8455 390.122 44.1359 390.295C39.1483 390.467 34.2295 389.105 30.0358 386.414L27.8267 385.224C28.1028 384.035 28.3618 383.327 28.3618 382.845ZM58.8922 342.766L59.8242 344.491H59.4272L58.806 344.75C58.7542 344.25 58.8405 343.542 58.8405 342.749L58.8922 342.766ZM58.8922 346.733C59.4445 346.681 59.9795 346.491 60.4455 346.198C60.7906 346.198 61.3774 345.715 61.55 345.802C61.7226 345.888 61.8952 346.112 62.085 346.733H62.0678C62.3266 347.457 62.6373 348.181 63.0515 348.837C63.6211 349.94 63.6211 349.941 62.7064 350.561H62.6891C61.412 351.596 59.8932 352.269 58.2709 352.51C58.3227 350.786 58.5298 348.94 58.6679 346.681L58.8922 346.733ZM58.5471 354.234H58.5298C60.0485 354.045 61.4983 353.493 62.7409 352.596C64.156 356.045 65.9682 359.322 68.1257 362.357L69.6272 364.651C68.7815 365.806 68.0394 366.686 59.9969 369.548C58.3573 369.324 56.5452 369.203 55.5787 369.152C55.7513 368.014 55.7513 366.858 55.5787 365.703C55.5615 365.547 55.5615 365.392 55.5787 365.22C55.7168 364.082 55.9584 362.961 56.2863 361.874C56.9594 359.494 57.4772 357.097 57.8741 354.666L58.5471 354.234ZM57.2182 231.896C57.1867 232.228 57.1551 232.562 57.1234 232.897C55.1892 253.347 52.817 278.429 53.8527 289.288C54.3015 294.238 54.6984 298.118 55.0091 301.515C56.338 313.725 57.0456 325.969 57.1319 338.248C57.4253 345.887 56.5796 353.544 54.6121 360.942C54.6121 361.736 54.2152 362.391 54.0771 363.012C48.0711 361.994 41.9961 361.529 35.9211 361.649H35.5587C34.0917 361.512 32.6075 361.512 31.1405 361.649C31.1405 356.269 29.501 344.387 27.9649 331.798C25.7041 313.569 23.2017 292.909 23.8919 286.634C22.7529 268.768 20.492 250.988 17.0919 233.396C17.0056 232.93 16.5396 232.62 16.0736 232.741C15.6249 232.844 15.3315 233.293 15.4178 233.758C18.7487 251.21 21.0094 268.852 22.1829 286.599C21.4236 293.135 24.0469 313.881 26.2905 332.195C26.9981 338.162 27.7056 343.94 28.2407 348.975H28.2234C21.3545 335.093 16.1596 320.434 12.7598 305.31C-1.28865 246.761 1.40377 207.875 3.30226 193.575C6.75396 194.921 10.4473 195.524 14.1405 195.386C20.2155 195.196 26.2732 194.696 32.2965 193.886C37.3359 193.317 42.548 192.696 47.8118 192.334H47.7946C48.0707 192.334 48.3296 192.179 48.4676 191.937H50.4524C49.3478 194.576 48.1052 197.162 46.7418 199.663C46.3449 200.422 45.9479 201.077 45.6373 201.698C45.2576 200.818 44.6535 200.042 43.8769 199.491C43.4627 199.249 42.9449 199.404 42.7206 199.801C42.4617 200.215 42.5998 200.767 43.0312 200.991C43.8941 201.888 44.55 202.974 44.9297 204.164C45.6373 205.768 46.2413 207.406 46.7418 209.062C47.9326 212.632 49.4342 218.512 50.4006 222.703V222.72C50.3661 222.824 50.3833 222.961 50.4524 223.065C50.1245 223.393 50.1245 223.927 50.4524 224.255H50.7112C50.7112 224.91 51.0219 225.531 51.1082 226.066C51.1945 226.445 51.5569 226.721 51.9539 226.686C52.4199 226.531 52.696 226.048 52.5752 225.583C52.5752 224.927 52.1782 223.996 51.9539 222.979C52.4889 221.961 53.0584 220.547 53.8178 218.564C55.4401 214.666 57.2695 210.872 59.2888 207.165C59.2888 211.062 58.2364 221.704 57.2182 231.896ZM67.159 184.661V185.627C66.2271 190.352 64.3977 194.853 61.757 198.872C58.2017 204.89 55.1469 211.202 52.61 217.721C52.2994 218.566 51.9887 219.273 51.7298 219.876C50.7633 215.996 49.5207 211.305 48.5543 208.219C48.1063 206.858 47.4518 205.051 46.7455 203.363C46.7444 203.361 46.7432 203.358 46.7421 203.355V203.372C46.7432 203.369 46.7444 203.366 46.7455 203.363C47.1764 202.229 47.7102 201.145 48.3299 200.113C50.2801 196.578 51.9542 192.905 53.3176 189.111C54.3358 186.231 55.1297 183.282 55.7165 180.281C55.7165 179.798 55.9409 179.263 56.0272 178.953L57.4423 179.212C57.4553 179.215 57.4682 179.217 57.4811 179.22C63.3176 180.489 65.007 180.857 67.5211 183.971L67.5038 183.989C67.2449 184.195 67.1069 184.506 67.1587 184.834L67.159 184.661Z" fill="white"/>
<path d="M28.3618 382.845V382.224C28.379 382.155 28.379 382.069 28.3618 382C28.3618 381.292 28.3618 380.723 28.6724 380.24C28.7242 379.499 28.8795 378.757 29.1557 378.068C30.3638 376.24 31.1404 374.153 31.451 371.98H32.4175L37.198 372.722C38.4233 372.946 39.6659 373.049 40.9085 373.032H43.9633V374.791V376.033C44.3603 379.206 45.3095 382.276 46.7419 385.138L46.7458 385.146C47.5899 386.954 48.3291 388.537 47.8983 389.243C47.4496 389.95 46.8455 390.122 44.1359 390.295C39.1483 390.467 34.2295 389.105 30.0358 386.414L27.8267 385.224C28.1028 384.035 28.3618 383.327 28.3618 382.845Z" fill="white"/>
<path d="M28.3618 368.445C28.5861 364.03 29.2419 363.461 32.7799 363.461H35.8692C41.8753 363.323 47.8637 363.806 53.7664 364.875V365.634C53.7664 365.979 54.1115 368.686 53.1968 369.652V369.635C52.5065 370.187 51.609 370.394 50.7634 370.204C49.2791 370.169 47.7949 370.273 46.3452 370.514C43.4285 371.049 40.4257 371.049 37.5088 370.514L32.7801 370.307C28.8106 369.807 28.3618 369.6 28.3618 368.445Z" fill="white"/>
<path d="M58.5471 354.234H58.5298C60.0485 354.045 61.4983 353.493 62.7409 352.596C64.156 356.045 65.9682 359.322 68.1257 362.357L69.6272 364.651C68.7815 365.806 68.0394 366.686 59.9969 369.548C58.3573 369.324 56.5452 369.203 55.5787 369.152C55.7513 368.014 55.7513 366.858 55.5787 365.703C55.5615 365.547 55.5615 365.392 55.5787 365.22C55.7168 364.082 55.9584 362.961 56.2863 361.874C56.9594 359.494 57.4772 357.097 57.8741 354.666L58.5471 354.234Z" fill="white"/>
<path d="M57.2182 231.896L57.1234 232.897C55.1892 253.347 52.817 278.429 53.8527 289.288C54.3015 294.238 54.6984 298.118 55.0091 301.515C56.338 313.725 57.0456 325.969 57.1319 338.248C57.4253 345.887 56.5796 353.544 54.6121 360.942C54.6121 361.736 54.2152 362.391 54.0771 363.012C48.0711 361.994 41.9961 361.529 35.9211 361.649H35.5587C34.0917 361.512 32.6075 361.512 31.1405 361.649C31.1405 356.269 29.501 344.387 27.9649 331.798C25.7041 313.569 23.2017 292.909 23.8919 286.634C22.7529 268.768 20.492 250.988 17.0919 233.396C17.0056 232.93 16.5396 232.62 16.0736 232.741C15.6249 232.844 15.3315 233.293 15.4178 233.758C18.7487 251.21 21.0094 268.852 22.1829 286.599C21.4236 293.135 24.0469 313.881 26.2905 332.195C26.9981 338.162 27.7056 343.94 28.2407 348.975H28.2234C21.3545 335.093 16.1596 320.434 12.7598 305.31C-1.28865 246.761 1.40377 207.875 3.30226 193.575C6.75396 194.921 10.4473 195.524 14.1405 195.386C20.2155 195.196 26.2732 194.696 32.2965 193.886C37.3359 193.317 42.548 192.696 47.8118 192.334H47.7946C48.0707 192.334 48.3296 192.179 48.4676 191.937H50.4524C49.3478 194.576 48.1052 197.162 46.7418 199.663C46.3449 200.422 45.9479 201.077 45.6373 201.698C45.2576 200.818 44.6535 200.042 43.8769 199.491C43.4627 199.249 42.9449 199.404 42.7206 199.801C42.4617 200.215 42.5998 200.767 43.0312 200.991C43.8941 201.888 44.55 202.974 44.9297 204.164C45.6373 205.768 46.2413 207.406 46.7418 209.062C47.9326 212.632 49.4342 218.512 50.4006 222.703V222.72C50.3661 222.824 50.3833 222.961 50.4524 223.065C50.1245 223.393 50.1245 223.927 50.4524 224.255H50.7112C50.7112 224.91 51.0219 225.531 51.1082 226.066C51.1945 226.445 51.5569 226.721 51.9539 226.686C52.4199 226.531 52.696 226.048 52.5752 225.583C52.5752 224.927 52.1782 223.996 51.9539 222.979C52.4889 221.961 53.0584 220.547 53.8178 218.564C55.4401 214.666 57.2695 210.872 59.2888 207.165C59.2888 211.062 58.2364 221.704 57.2182 231.896Z" fill="white"/>
<path d="M67.159 185.627V184.661L67.1587 184.834C67.1069 184.506 67.2449 184.195 67.5038 183.989L67.5211 183.971C65.007 180.857 63.3176 180.489 57.4811 179.22L57.4423 179.212L56.0272 178.953C55.9409 179.263 55.7165 179.798 55.7165 180.281C55.1297 183.282 54.3358 186.231 53.3176 189.111C51.9542 192.905 50.2801 196.578 48.3299 200.113C47.7102 201.145 47.1764 202.229 46.7455 203.363C47.4518 205.051 48.1063 206.858 48.5543 208.219C49.5207 211.305 50.7633 215.996 51.7298 219.876C51.9887 219.273 52.2994 218.566 52.61 217.721C55.1469 211.202 58.2017 204.89 61.757 198.872C64.3977 194.853 66.2271 190.352 67.159 185.627Z" fill="white"/>
<path d="M59.5134 63.8733L60.3073 64.5286C57.2698 66.7188 53.9562 68.4951 50.4525 69.8229C44.8092 71.9441 38.6821 72.4442 32.7798 71.237C34.661 66.8739 35.0234 62.0109 33.7981 57.4235C33.7808 57.1648 33.7808 56.9234 33.7981 56.6646C34.4194 56.7164 35.0407 56.7164 35.6448 56.6646C39.8731 56.3887 43.9805 55.2678 47.7603 53.3535C49.4861 52.3016 51.1257 51.1116 52.6618 49.7838C52.9207 51.629 53.3694 53.457 53.9907 55.2162C54.7501 58.648 56.7175 61.718 59.5134 63.8733Z" fill="white"/>
<path d="M31.1058 54.026C26.912 51.284 26.0665 43.4376 26.0665 32.4866V32.4694C26.0665 31.2967 24.2889 31.2967 24.2889 32.4694C24.2889 35.3838 24.2889 38.1256 24.5477 40.5917L24.565 40.609C24.0645 40.5572 23.5985 40.3158 23.2879 39.9364C21.9417 36.8668 21.6656 33.4347 22.494 30.1757C23.3742 28.7788 24.6686 27.6579 26.2045 27.0026C28.5172 26.1058 29.9842 23.7949 29.8116 21.3114C30.1222 17.5347 31.9689 14.034 34.9375 11.6885C37.5608 9.96394 40.8398 9.58453 43.7739 10.671C43.9982 10.7055 44.2226 10.7055 44.447 10.671C45.2063 13.2061 47.5017 14.9651 50.1424 15.0858C52.0754 15.3272 53.9393 15.9998 55.579 17.069L56.0277 17.4139L55.7171 17.9485C55.7171 18.2072 55.3719 18.5694 55.1821 18.966C53.3182 22.0184 52.6796 25.6743 53.4217 29.158C53.646 30.6239 53.7841 32.107 53.8531 33.5728C53.9049 33.9005 54.1293 34.1764 54.4227 34.2799C54.6988 34.4524 55.044 34.4524 55.3201 34.2799C55.51 34.073 55.6825 33.8143 55.8034 33.5384C56.0622 32.9693 56.511 32.038 58.6337 31.3827C59.4276 31.124 59.9626 31.1585 60.3078 31.3827V31.3655C61.1707 33.4004 61.0499 35.7113 59.9972 37.6429C58.9444 40.7298 57.0805 43.0237 55.579 43.2131C55.0957 43.2475 54.7506 43.6959 54.8196 44.1788C54.1638 44.9721 53.0592 46.4724 52.3861 47.4037H52.4034C50.6948 49.0937 48.7964 50.5768 46.7429 51.8185C39.0972 55.3021 34.1955 56.0093 31.1058 54.026Z" fill="white"/>
<path d="M39.2707 39.6801C39.754 39.6284 40.0991 39.18 39.9783 38.6971C39.9438 38.2142 39.4951 37.8693 39.0119 37.9556C36.8545 38.3005 36.751 38.2142 35.4739 37.076L35.1287 36.7656C35.4393 34.5582 35.6982 33.0061 35.8881 31.8678H35.8708C35.9916 30.3502 36.3195 28.8671 36.8546 27.453C37.0272 26.9874 36.7855 26.4873 36.3196 26.3493C35.8709 26.1596 35.3704 26.3838 35.215 26.8322C34.6455 28.3843 34.2831 30.0226 34.145 31.6783C34.145 32.92 33.6963 34.5928 33.2993 36.9726L33.3166 36.9898C33.2648 37.3003 33.3856 37.6107 33.6272 37.8176L34.2831 38.4385C35.077 39.3697 36.1987 39.9216 37.4241 39.9905C38.0454 39.9388 38.6667 39.8353 39.2707 39.6801Z" fill="black"/>
<path d="M89.2844 108.282C88.4387 101.125 84.8662 77.3782 74.0796 72.9634H74.0969C70.1102 70.687 66.4168 67.9451 63.0859 64.7889L60.7388 62.754V62.7712C58.081 60.9259 56.1828 58.1838 55.406 55.0453C54.4223 52.9414 54.0081 50.6305 54.2152 48.337C55.1817 47.0091 56.2517 45.6467 56.4761 45.4225H56.4588C56.6142 45.2845 56.7004 45.1121 56.735 44.9224C59.1857 43.5083 60.9633 41.1801 61.7226 38.4379C62.7064 36.127 62.7064 33.5057 61.7226 31.1949C63.8109 26.2283 64.2251 20.7098 62.8617 15.4844C62.0678 9.08644 57.5634 3.79219 51.3846 1.98123C51.3501 1.70531 51.212 1.46386 50.9877 1.30868C44.7399 -1.01943 37.7504 -0.208913 32.2104 3.48161C30.3465 5.17164 28.3963 6.79272 26.3771 8.29287C21.3033 12.0869 19.1803 13.6388 20.6299 23.5721V23.5549C20.3711 25.0207 20.3711 26.5211 20.6299 27.9697C20.699 28.418 20.8888 28.8492 21.1649 29.2113C21.1477 29.3148 21.1477 29.4183 21.1649 29.5218C20.6817 31.9016 19.836 38.5757 22.2177 41.4038C22.8908 42.2488 23.9263 42.7489 24.9963 42.7145C25.6176 49.078 27.0674 53.6654 30.4329 55.9589C30.9334 56.3038 31.4684 56.5625 32.0207 56.7522C31.9172 57.3213 31.9172 57.8904 32.0207 58.4422C32.9181 61.7706 32.8146 65.2887 31.7273 68.5482C28.4655 70.4107 17.541 76.8948 14.7103 83.1206C13.7093 85.3453 13.226 87.7769 13.2951 90.2258C12.7946 97.8484 11.4139 105.402 9.13577 112.696C9.03221 113.369 9.03221 114.059 9.13577 114.731C8.60077 123.664 7.2546 132.528 5.11452 141.22C5.09726 141.841 5.09726 142.445 5.11452 143.065C4.40691 151.826 3.21608 160.535 1.59377 169.158C-1.2366 186.421 0.230368 190.783 1.93894 192.336V192.784H1.85265C0.748106 201.717 0.213115 210.702 0.264852 219.704C0.575507 248.642 4.26882 277.424 11.2586 305.502C13.6057 315.09 20.0949 338.958 28.9313 352.652C29.38 356.532 29.6389 359.723 29.6907 361.792C28.0166 362.499 27.1364 364.172 26.9983 367.931C26.9983 370.001 28.1029 370.759 30.0876 371.156V371.139C29.7597 373.088 29.0348 374.933 27.9648 376.571C27.6024 377.416 27.378 378.313 27.309 379.227C27.309 380.072 26.9638 381.262 26.6014 382.987V382.969C26.5841 383.262 26.5841 383.538 26.6014 383.814C25.1171 383.331 23.5121 383.987 22.7872 385.366L21.8553 386.815C17.4371 393.437 17.4371 394.145 12.3633 396.3L11.3105 396.558V396.576C8.7735 396.852 6.46068 398.128 4.90769 400.145C3.94121 401.991 3.82042 404.164 4.54526 406.113C4.64881 406.475 4.97673 406.716 5.33917 406.733H6.44371C17.3336 406.561 28.1551 404.923 38.6133 401.87C39.7696 401.56 53.0585 396.214 52.7996 391.937C52.7996 388.764 52.0402 386.901 50.9875 386.504C50.6596 386.418 50.3316 386.418 50.0037 386.504C50.0037 385.797 49.4342 385.056 49.0717 384.211C50.9702 384.211 52.7823 384.469 54.5428 384.469H54.56C61.584 384.659 68.5568 383.141 74.8907 380.054C75.8227 379.261 76.1678 377.623 76.047 375.157H76.0298C75.7019 370.776 74.1831 366.586 71.6116 363.016C71.2146 362.395 70.6451 361.567 70.0238 360.55C67.7802 357.566 65.8991 354.342 64.415 350.927V350.668C65.6921 349.513 65.3469 348.513 64.415 347.219C64.0871 346.616 63.8109 345.995 63.5693 345.357C63.4312 344.477 62.8444 343.718 62.0333 343.322H61.6881C61.6881 343.322 61.0668 342.304 59.0303 338.424V337.665V337.682C58.9785 325.369 58.2709 313.056 56.9075 300.812C56.5968 297.449 56.1999 293.534 55.7512 288.619C54.7329 277.72 57.1663 252.059 59.1166 231.487C60.9287 212.724 61.55 205.533 60.877 204.205C61.6709 202.756 62.4648 201.239 63.3967 199.79V199.807C66.1925 195.582 68.091 190.84 69.0055 185.855C69.1781 186.062 69.437 186.183 69.7132 186.166C70.0066 186.149 70.2654 185.959 70.3862 185.683C71.5771 183.027 72.5435 180.82 73.3547 178.888C76.0471 172.576 77.1516 170.059 80.7759 168.162C83.1231 167.006 82.6744 164.316 82.4155 162.505H82.3982C82.2947 161.919 82.2947 161.315 82.3982 160.729C85.4702 158.073 86.3159 153.658 84.4692 150.054C83.7616 148.019 83.589 147.312 84.4692 146.605C90.2164 143.07 91.0967 124.527 89.2844 108.282ZM59.5134 63.8733L60.3073 64.5286C57.2698 66.7188 53.9562 68.4951 50.4525 69.8229C44.8092 71.9441 38.6821 72.4442 32.7798 71.237C34.661 66.8739 35.0234 62.0109 33.7981 57.4235C33.7808 57.1648 33.7808 56.9234 33.7981 56.6646C34.4194 56.7164 35.0407 56.7164 35.6448 56.6646C39.8731 56.3887 43.9805 55.2678 47.7603 53.3535C49.4861 52.3016 51.1257 51.1116 52.6618 49.7838C52.9207 51.629 53.3694 53.457 53.9907 55.2162C54.7501 58.648 56.7175 61.718 59.5134 63.8733ZM31.1058 54.026C26.912 51.284 26.0665 43.4376 26.0665 32.4866V32.4694C26.0665 31.2967 24.2889 31.2967 24.2889 32.4694C24.2889 35.3838 24.2889 38.1256 24.5477 40.5917L24.565 40.609C24.0645 40.5572 23.5985 40.3158 23.2879 39.9364C21.9417 36.8668 21.6656 33.4347 22.494 30.1757C23.3742 28.7788 24.6686 27.6579 26.2045 27.0026C28.5172 26.1058 29.9842 23.7949 29.8116 21.3114C30.1222 17.5347 31.9689 14.034 34.9375 11.6885C37.5608 9.96394 40.8398 9.58453 43.7739 10.671C43.9982 10.7055 44.2226 10.7055 44.447 10.671C45.2063 13.2061 47.5017 14.9651 50.1424 15.0858C52.0754 15.3272 53.9393 15.9998 55.579 17.069L56.0277 17.4139L55.7171 17.9485C55.7171 18.2072 55.3719 18.5694 55.1821 18.966C53.3182 22.0184 52.6796 25.6743 53.4217 29.158C53.646 30.6239 53.7841 32.107 53.8531 33.5728C53.9049 33.9005 54.1293 34.1764 54.4227 34.2799C54.6988 34.4524 55.044 34.4524 55.3201 34.2799C55.51 34.073 55.6825 33.8143 55.8034 33.5384C56.0622 32.9693 56.511 32.038 58.6337 31.3827C59.4276 31.124 59.9626 31.1585 60.3078 31.3827V31.3655C61.1707 33.4004 61.0499 35.7113 59.9972 37.6429C58.9444 40.7298 57.0805 43.0237 55.579 43.2131C55.0957 43.2475 54.7506 43.6959 54.8196 44.1788C54.1638 44.9721 53.0592 46.4724 52.3861 47.4037H52.4034C50.6948 49.0937 48.7964 50.5768 46.7429 51.8185C39.0972 55.3021 34.1955 56.0093 31.1058 54.026ZM28.3618 368.445C28.5861 364.03 29.2419 363.461 32.7799 363.461H35.8692C41.8753 363.323 47.8637 363.806 53.7664 364.875V365.634C53.7664 365.979 54.1115 368.686 53.1968 369.652V369.635C52.5065 370.187 51.609 370.394 50.7634 370.204C49.2791 370.169 47.7949 370.273 46.3452 370.514C43.4285 371.049 40.4257 371.049 37.5088 370.514L32.7801 370.307C28.8106 369.807 28.3618 369.6 28.3618 368.445ZM28.3618 382.845V382.224C28.379 382.155 28.379 382.069 28.3618 382C28.3618 381.292 28.3618 380.723 28.6724 380.24C28.7242 379.499 28.8795 378.757 29.1557 378.068C30.3638 376.24 31.1404 374.153 31.451 371.98H32.4175L37.198 372.722C38.4233 372.946 39.6659 373.049 40.9085 373.032H43.9633V374.791V376.033C44.3603 379.206 45.3095 382.276 46.7419 385.138C47.5876 386.949 48.3297 388.536 47.8983 389.243C47.4496 389.95 46.8455 390.122 44.1359 390.295C39.1483 390.467 34.2295 389.105 30.0358 386.414L27.8267 385.224C28.1028 384.035 28.3618 383.327 28.3618 382.845ZM58.8922 342.766L59.8242 344.491H59.4272L58.806 344.75C58.7542 344.25 58.8405 343.542 58.8405 342.749L58.8922 342.766ZM58.8922 346.733C59.4445 346.681 59.9795 346.491 60.4455 346.198C60.7906 346.198 61.3774 345.715 61.55 345.802C61.7226 345.888 61.8952 346.112 62.085 346.733H62.0678C62.3266 347.457 62.6373 348.181 63.0515 348.837C63.6211 349.94 63.6211 349.941 62.7064 350.561H62.6891C61.412 351.596 59.8932 352.269 58.2709 352.51C58.3227 350.786 58.5298 348.94 58.6679 346.681L58.8922 346.733ZM58.5471 354.234H58.5298C60.0485 354.045 61.4983 353.493 62.7409 352.596C64.156 356.045 65.9682 359.322 68.1257 362.357L69.6272 364.651C68.7815 365.806 68.0394 366.686 59.9969 369.548C58.3573 369.324 56.5452 369.203 55.5787 369.152C55.7513 368.014 55.7513 366.858 55.5787 365.703C55.5615 365.547 55.5615 365.392 55.5787 365.22C55.7168 364.082 55.9584 362.961 56.2863 361.874C56.9594 359.494 57.4772 357.097 57.8741 354.666L58.5471 354.234ZM57.2182 231.896C55.2679 252.521 52.8 278.251 53.8527 289.288C54.3015 294.238 54.6984 298.118 55.0091 301.515C56.338 313.725 57.0456 325.969 57.1319 338.248C57.4253 345.887 56.5796 353.544 54.6121 360.942C54.6121 361.736 54.2152 362.391 54.0771 363.012C48.0711 361.994 41.9961 361.529 35.9211 361.649H35.5587C34.0917 361.512 32.6075 361.512 31.1405 361.649C31.1405 356.269 29.501 344.387 27.9649 331.798C25.7041 313.569 23.2017 292.909 23.8919 286.634C22.7529 268.768 20.492 250.988 17.0919 233.396C17.0056 232.93 16.5396 232.62 16.0736 232.741C15.6249 232.844 15.3315 233.293 15.4178 233.758C18.7487 251.21 21.0094 268.852 22.1829 286.599C21.4236 293.135 24.0469 313.881 26.2905 332.195C26.9981 338.162 27.7056 343.94 28.2407 348.975H28.2234C21.3545 335.093 16.1596 320.434 12.7598 305.31C-1.28865 246.761 1.40377 207.875 3.30226 193.575C6.75396 194.921 10.4473 195.524 14.1405 195.386C20.2155 195.196 26.2732 194.696 32.2965 193.886C37.3359 193.317 42.548 192.696 47.8118 192.334H47.7946C48.0707 192.334 48.3296 192.179 48.4676 191.937H50.4524C49.3478 194.576 48.1052 197.162 46.7418 199.663C46.3449 200.422 45.9479 201.077 45.6373 201.698C45.2576 200.818 44.6535 200.042 43.8769 199.491C43.4627 199.249 42.9449 199.404 42.7206 199.801C42.4617 200.215 42.5998 200.767 43.0312 200.991C43.8941 201.888 44.55 202.974 44.9297 204.164C45.6373 205.768 46.2413 207.406 46.7418 209.062C47.9326 212.632 49.4342 218.512 50.4006 222.703V222.72C50.3661 222.824 50.3833 222.961 50.4524 223.065C50.1245 223.393 50.1245 223.927 50.4524 224.255H50.7112C50.7112 224.91 51.0219 225.531 51.1082 226.066C51.1945 226.445 51.5569 226.721 51.9539 226.686C52.4199 226.531 52.696 226.048 52.5752 225.583C52.5752 224.927 52.1782 223.996 51.9539 222.979C52.4889 221.961 53.0584 220.547 53.8178 218.564C55.4401 214.666 57.2695 210.872 59.2888 207.165C59.2888 211.062 58.2364 221.704 57.2182 231.896ZM67.159 184.661V185.627C66.2271 190.352 64.3977 194.853 61.757 198.872C58.2017 204.89 55.1469 211.202 52.61 217.721C52.2994 218.566 51.9887 219.273 51.7298 219.876C50.7633 215.996 49.5207 211.305 48.5543 208.219C48.1055 206.856 47.4497 205.045 46.7421 203.355V203.372C47.1736 202.234 47.7086 201.148 48.3299 200.113C50.2801 196.578 51.9542 192.905 53.3176 189.111C54.3358 186.231 55.1297 183.282 55.7165 180.281C55.7165 179.798 55.9409 179.263 56.0272 178.953L57.4423 179.212C63.3101 180.488 65.0014 180.85 67.5211 183.971L67.5038 183.989C67.2449 184.195 67.1069 184.506 67.1587 184.834L67.159 184.661Z" fill="black"/>
</svg>
