<svg width="91" height="114" viewBox="0 0 91 114" fill="none" xmlns="http://www.w3.org/2000/svg">
<path d="M15.6117 45.2828C18.6276 45.2646 24.1872 45.3011 28.7157 46.0471C36.1122 47.1156 42.0325 53.0607 43.1119 60.5045C44.0452 66.9151 44.5995 73.3754 44.7719 79.8516C44.7701 80.0451 44.845 80.2315 44.9802 80.3696C45.1153 80.5078 45.2998 80.5864 45.4928 80.5883C45.6859 80.5902 45.8718 80.5152 46.0097 80.3797C46.1476 80.2442 46.2261 80.0594 46.2279 79.8659C47.1656 54.598 48.207 44.4832 75.3785 45.2839C76.2985 45.2518 76.3145 43.8429 75.3603 43.8247C73.117 43.8429 70.9031 43.8222 66.7748 43.492C67.0062 40.0428 66.965 34.9975 70.7637 34.3251C71.9642 34.1665 73.173 34.08 74.3837 34.0661C75.3134 34.0194 75.3026 32.6294 74.3628 32.6069C73.1641 32.6194 71.9666 32.5296 70.7832 32.3384C68.9545 32.0566 67.4799 30.194 67.1978 27.8085C66.9377 25.6122 66.7827 23.3994 66.7368 21.2312C66.7064 20.2645 65.3172 20.2776 65.2808 21.2162C65.2355 23.389 65.0806 25.607 64.8194 27.8085C64.0832 32.4183 61.1034 32.6312 57.615 32.6082C56.7184 32.6719 56.7146 34.0067 57.6208 34.065C64.553 33.6984 64.8886 37.1053 65.2355 43.3525C56.6596 43.2363 49.1569 37.4816 47.8878 28.5655C46.9538 22.1503 46.3996 15.6853 46.2279 9.20446C46.1906 8.28516 44.8138 8.25598 44.7719 9.20446C44.6 15.6854 44.0456 22.1505 43.1117 28.5659C42.0316 36.0096 36.1113 41.9549 28.7155 43.0236C24.2334 43.7685 18.5498 43.8238 15.6074 43.8262C14.7141 43.8694 14.6863 45.2352 15.6117 45.2828ZM32.1373 43.7045C40.3228 41.0962 44.2569 33.4885 45.5021 25.4698C46.8535 33.4879 50.6891 40.9165 58.3262 44.3945C58.3723 44.5269 58.3763 44.6703 58.3377 44.8051C58.2991 44.9399 58.2198 45.0593 58.1107 45.1471C50.949 48.836 47.6293 54.1491 46.0501 61.5235C46.0278 61.6299 45.9699 61.7255 45.8858 61.7943C45.8018 61.8631 45.6968 61.901 45.5883 61.9016C45.4798 61.9023 45.3744 61.8657 45.2895 61.7979C45.2046 61.7302 45.1455 61.6353 45.1219 61.5292C43.9093 54.3267 39.2368 47.619 32.1251 45.3589C31.3498 45.1245 31.3524 43.9323 32.1368 43.7045H32.1373Z" fill="black"/>
<path d="M37.8105 62.0813C35.4991 62.0248 33.4132 62.0127 32.8827 58.6498C32.6883 57.0082 32.5733 55.3533 32.5387 53.7338C32.5074 52.8004 31.1166 52.7898 31.0827 53.7338C31.0489 55.3529 30.9331 57.0069 30.7387 58.6496C30.3041 61.4637 28.6437 62.0503 26.3928 62.0753C25.4207 62.0753 24.9732 61.9585 24.8345 62.8111C24.9777 63.6634 25.4302 63.5407 26.3962 63.5363C26.9988 63.5574 27.5992 63.6203 28.1931 63.7244C29.4937 63.9545 30.5409 65.2841 30.7387 66.9572C30.8905 68.2397 31.0416 70.7876 31.0827 72.7575C31.0827 72.951 31.1594 73.1366 31.2959 73.2734C31.4325 73.4103 31.6176 73.4871 31.8107 73.4871C32.0038 73.4871 32.189 73.4103 32.3255 73.2734C32.462 73.1366 32.5387 72.951 32.5387 72.7575C32.5798 70.7876 32.7309 68.2391 32.8827 66.9572C33.0854 65.2454 34.141 63.888 35.3928 63.7298C36.2861 63.6118 37.1855 63.5476 38.0864 63.5374C39.1717 63.4115 38.9244 61.898 37.8105 62.0813Z" fill="black"/>
<path d="M24.2164 27.4441C22.9697 27.4319 22.9886 29.6134 24.2164 29.5986C25.4629 29.6106 25.4436 27.4293 24.2164 27.4441Z" fill="black"/>
<path d="M17.9289 14.9276C18.8228 14.9071 19.7167 14.9699 20.599 15.1153C21.8996 15.3455 22.9468 16.6748 23.1446 18.3482C23.2962 19.6295 23.4475 22.1773 23.4886 24.1485C23.4886 24.342 23.5653 24.5276 23.7018 24.6644C23.8384 24.8012 24.0235 24.8781 24.2166 24.8781C24.4097 24.8781 24.5949 24.8012 24.7314 24.6644C24.8679 24.5276 24.9446 24.342 24.9446 24.1485C24.9857 22.1786 25.1368 19.6302 25.2886 18.3482C25.4913 16.6363 26.5469 15.2789 27.7987 15.1197C28.6047 15.0159 29.4153 14.9528 30.2275 14.9305C31.5117 15.0828 31.5015 13.2973 30.2164 13.4713C29.4133 13.462 28.6118 13.395 27.8182 13.2707C26.5306 13.0724 25.4904 11.744 25.2884 10.0406C25.094 8.39896 24.979 6.74405 24.9444 5.12452C24.9135 4.19118 23.5221 4.18042 23.4884 5.12452C23.165 9.89027 23.9434 13.825 17.9231 13.4708C17.0252 13.5352 17.0238 14.8691 17.9289 14.9276Z" fill="black"/>
<path d="M66.009 51.7383C66.2021 51.7383 66.3873 51.6614 66.5238 51.5246C66.6603 51.3878 66.737 51.2022 66.737 51.0087V48.8429C66.7128 47.8813 65.3054 47.8802 65.281 48.8429V51.0087C65.281 51.2022 65.3577 51.3878 65.4942 51.5246C65.6308 51.6614 65.8159 51.7383 66.009 51.7383Z" fill="black"/>
<path d="M66.9185 55.0135C66.9324 54.0365 65.5292 53.756 65.1695 54.6653C64.6879 56.0298 66.8406 56.4599 66.9185 55.0135Z" fill="black"/>
<path d="M46.228 86.0603V84.567C46.2118 83.6083 44.7882 83.6078 44.772 84.567V86.0603C44.7884 87.0189 46.212 87.0196 46.228 86.0603Z" fill="black"/>
</svg>
