<svg width="110" height="136" viewBox="0 0 110 136" fill="none" xmlns="http://www.w3.org/2000/svg">
<path d="M92.863 21.309C91.9958 21.1684 91.238 21.2348 90.6208 21.4965L90.4489 21.5707C88.0348 22.5941 87.3864 22.8715 85.7575 25.184C85.6716 25.3051 85.5896 25.4418 85.5232 25.5785C82.8748 30.8871 85.2458 34.8012 85.6716 35.4379C86.5036 37.1098 88.1325 37.6918 88.8005 37.8637C88.8942 37.8872 89.1169 37.9458 92.3708 37.9458C97.652 37.9458 100.804 35.602 101.484 31.1685C102.539 24.3013 98.8005 22.2623 92.863 21.313L92.863 21.309ZM99.5114 30.8559C98.988 34.2778 96.652 35.9379 92.3747 35.9379C91.8552 35.9379 89.6872 35.9262 89.238 35.9027C88.7966 35.7777 87.8786 35.4144 87.445 34.4965C87.4216 34.4418 87.3864 34.3871 87.3513 34.3364C87.2575 34.2036 85.0427 31.02 87.3161 26.4653C87.3395 26.4184 87.3708 26.3676 87.402 26.3246C88.7028 24.4808 88.9918 24.3558 91.2379 23.4027L91.4098 23.3285C91.6754 23.2152 92.07 23.1996 92.5543 23.2777C98.6324 24.2504 100.257 26.0199 99.5152 30.8519L99.5114 30.8559Z" fill="black"/>
<path d="M30.6949 60.352C30.566 60.6762 30.6168 61.0434 30.8278 61.3208C31.0192 61.5747 31.3121 61.7192 31.6246 61.7192C31.6559 61.7192 31.691 61.7192 31.7223 61.7153C39.4723 60.9536 47.0503 60.145 54.3783 59.3637C61.7025 58.5824 69.2803 57.7739 76.9563 57.0199L79.2922 56.9496C79.6828 56.9379 80.0305 56.6996 80.1828 56.3402C80.3352 55.9808 80.2648 55.5668 80.0031 55.2777C76.8781 51.8402 73.6672 48.4379 70.3937 45.0977C70.3703 45.0704 70.3468 45.0469 70.3234 45.0235C68.507 43.1719 66.6672 41.3399 64.8156 39.5274C64.8039 39.5157 64.7961 39.5079 64.7844 39.5C62.9992 37.7578 61.2024 36.0312 59.3899 34.332C59.1672 34.1211 58.8625 34.0274 58.5617 34.0703L56.9484 34.3086C52.5734 34.6289 48.7609 34.8438 45.0774 35.0469C41.554 35.2422 37.9016 35.4492 33.7614 35.7461C31.6481 32.5664 29.402 29.7852 27.2262 27.1094C24.9645 24.3282 22.6285 21.4571 20.4762 18.1485C20.1755 17.6876 19.5544 17.5547 19.0934 17.8555C18.6325 18.1563 18.4997 18.7774 18.8005 19.2383C21.0114 22.6328 23.3825 25.5508 25.6755 28.3711C27.8083 30.9922 30.0036 33.7149 32.0544 36.7891C31.0739 38.2539 30.0583 39.7305 29.0036 41.2461C27.3005 43.7031 25.5388 46.2422 23.7809 48.9961C23.5778 49.3164 23.5699 49.7266 23.7692 50.0508C23.9645 50.375 24.3238 50.5625 24.7067 50.5313L38.6757 49.3594C37.0546 51.6836 34.7109 54.836 33.039 57.086C30.8788 59.9922 30.7809 60.1333 30.6949 60.352ZM45.1869 37.047C48.8822 36.84 52.7025 36.629 57.1669 36.297L58.3739 36.1173C59.5184 37.1915 60.6512 38.2892 61.7841 39.3829C58.9989 39.5235 56.1279 39.6173 53.3271 39.7071C49.7412 39.8204 46.0303 39.9376 42.5222 40.1564C41.9987 40.1876 41.5026 40.2189 41.0768 40.1173C40.2409 39.9142 39.8112 38.6251 39.401 37.3751C41.3971 37.254 43.3072 37.1446 45.1822 37.0431L45.1869 37.047ZM26.5659 48.367C27.937 46.285 29.3081 44.3084 30.6401 42.3865C31.7339 40.8084 32.8003 39.2732 33.8159 37.7459C35.0307 37.6561 36.1948 37.5818 37.3354 37.5076C37.3901 37.6717 37.4448 37.8358 37.4995 37.9998C38.0308 39.6014 38.687 41.5936 40.605 42.0623C41.0073 42.16 41.4058 42.1912 41.7886 42.1912C42.0855 42.1912 42.3745 42.1717 42.648 42.1561C46.1246 41.9373 49.8199 41.8201 53.39 41.7069C56.8236 41.5975 60.3627 41.4842 63.734 41.2811C64.9723 42.4959 66.2067 43.7108 67.4293 44.9413L26.5659 48.367ZM34.6401 58.2772C36.6674 55.5467 39.6753 51.5077 41.2378 49.1444L69.2578 46.7928C71.9023 49.4959 74.5039 52.242 77.0547 55.0155L76.8282 55.0233C69.0743 55.785 61.4962 56.5936 54.1642 57.3749C47.5353 58.0819 40.7032 58.8124 33.7262 59.5077C34.0113 59.1249 34.3199 58.7069 34.6363 58.2811L34.6401 58.2772Z" fill="black"/>
<path d="M100.301 60.496C90.9416 57.2187 80.199 59.2655 69.813 61.2421L67.6997 61.6444C50.6177 64.8592 33.4267 66.5585 15.1447 66.8397C14.5939 66.8475 14.1564 67.2968 14.1603 67.8475C14.1798 70.4452 14.0626 72.8709 13.9533 75.2147C13.8751 76.8553 13.8166 78.4295 13.7853 80.0116C12.2541 79.3163 10.9533 78.1054 10.2384 76.5702C10.0079 76.0702 9.41028 75.8515 8.9103 76.0859C8.4103 76.3202 8.19155 76.914 8.42592 77.414C9.94152 80.6718 13.4923 82.8085 17.0939 82.6484C19.883 82.5116 22.5236 80.9726 24.1134 78.6992C24.4572 79.2109 24.8986 79.6796 25.4259 80.082C27.0157 81.3008 29.2384 81.8476 31.2228 81.5C34.008 81.0195 36.3087 79.3047 38.4025 77.4297C40.1603 79.9219 43.0822 81.5235 46.1525 81.6055C49.008 81.6875 51.7814 80.4453 53.6759 78.3633C54.8321 80.5703 57.0665 82.2422 59.5392 82.586C62.1369 82.9492 64.883 81.8399 66.59 79.8594C68.1955 81.8867 70.8088 83.1406 73.3908 83.0274C75.965 82.9102 78.4338 81.4415 79.8556 79.2969C81.1212 80.6758 82.7618 81.7149 84.629 82.3555C84.6329 82.3594 84.6368 82.3594 84.6447 82.3594C85.6173 82.6914 86.6486 82.9219 87.7306 83.0234C88.1563 83.0625 88.5743 83.082 88.9922 83.082C92.2617 83.082 95.2656 81.8906 97.3711 79.7265C97.7579 79.332 97.7461 78.6992 97.3516 78.3124C96.9571 77.9257 96.3243 77.9335 95.9375 78.332C94.0156 80.3086 91.0117 81.3164 87.918 81.0312C87.504 80.9921 87.0977 80.9296 86.6992 80.8476C88.8828 78.0976 91.1133 75.0195 93.289 72.0117C95.7617 68.5898 98.3163 65.0547 100.754 62.0742C100.961 61.8203 101.031 61.4843 100.941 61.1718C100.851 60.8593 100.617 60.6054 100.309 60.4999L100.301 60.496ZM91.6565 70.84C89.3362 74.0548 86.9417 77.3556 84.637 80.215C82.9222 79.4923 81.4768 78.3517 80.5159 76.9103C80.3089 76.5978 79.9495 76.4298 79.5745 76.4728C79.2034 76.5119 78.887 76.758 78.7503 77.1056C77.8987 79.3087 75.6605 80.922 73.3011 81.0275C70.9417 81.133 68.5667 79.7306 67.5199 77.6134C67.3519 77.2775 67.012 77.0626 66.637 77.0548H66.6214C66.2503 77.0548 65.9105 77.2579 65.7386 77.5861C64.6331 79.6642 62.1448 80.9299 59.8167 80.6056C57.4886 80.2775 55.4417 78.3712 54.9534 76.0744C54.8675 75.672 54.5432 75.3595 54.137 75.297C53.7268 75.2345 53.3245 75.422 53.1136 75.7775C51.723 78.1408 48.9456 79.672 46.2074 79.6095C43.4652 79.5353 40.7738 77.8517 39.5121 75.4181C39.3676 75.1408 39.1019 74.9454 38.7933 74.8947C38.4848 74.84 38.1723 74.9337 37.9418 75.1486C35.7348 77.1994 33.5316 79.0783 30.8793 79.5392C29.4457 79.7892 27.7855 79.379 26.641 78.504C26.0668 78.0626 25.3558 77.297 25.2504 76.172C25.2074 75.7032 24.8441 75.3282 24.3793 75.2696C23.9066 75.211 23.4691 75.4884 23.3129 75.9337C22.3871 78.5782 19.7895 80.5196 16.9926 80.6564C16.5824 80.6759 16.1762 80.6447 15.7738 80.5939C15.7933 78.8595 15.8636 77.133 15.9496 75.3205C16.0472 73.2463 16.1488 71.1096 16.1605 68.8322C34.1915 68.5002 51.1835 66.7931 68.0705 63.6174L70.1877 63.2151C79.801 61.387 89.7227 59.4963 98.2777 61.9573C96.0863 64.719 93.8402 67.8284 91.6605 70.8479L91.6565 70.84Z" fill="black"/>
<path d="M64.4881 98.891C66.0623 101.477 68.9881 103.25 72.0272 103.305H72.1717C75.7928 103.305 79.3123 100.875 80.5779 97.477C80.7693 96.9575 80.5076 96.3832 79.988 96.1918C79.4724 96.0004 78.8942 96.2621 78.7028 96.7816C77.7185 99.4183 74.988 101.309 72.1716 101.309H72.0623C69.2107 101.258 66.4881 99.2581 65.5857 96.5511C65.4607 96.1761 65.1247 95.9066 64.7302 95.8714C64.3396 95.8363 63.9568 96.0355 63.7614 96.3832C62.4176 98.8207 60.1403 100.43 57.82 100.59C55.3512 100.762 52.9177 98.9886 52.6169 96.7972C52.5544 96.3519 52.2029 96.0003 51.7576 95.9417C51.3083 95.8792 50.8826 96.1292 50.7068 96.5433C49.7458 98.7972 47.2654 100.356 44.8279 100.336C42.3787 100.282 39.9802 98.5785 39.1248 96.2816C38.988 95.9183 38.656 95.6644 38.2693 95.637C37.8748 95.6019 37.5115 95.8011 37.3201 96.137C36.0349 98.3948 33.3357 99.844 30.7342 99.6565C28.1444 99.4729 25.6717 97.6526 24.7186 95.2385C24.5623 94.8401 24.1561 94.5784 23.7342 94.6057C23.3045 94.6292 22.9373 94.9221 22.824 95.3401C22.1795 97.6839 19.8552 99.4651 17.4256 99.4846H17.3905C14.9725 99.4846 12.6444 97.7424 11.9686 95.4182C11.8162 94.8869 11.2576 94.5823 10.7303 94.7385C10.199 94.8908 9.89434 95.4494 10.0506 95.9768C10.9686 99.1213 14.117 101.481 17.3944 101.481H17.4452C20.0155 101.461 22.496 99.9885 23.8788 97.8323C25.4257 99.9964 27.9257 101.461 30.6015 101.653C33.3984 101.848 36.2148 100.641 38.0546 98.5471C39.5234 100.782 42.0937 102.278 44.7929 102.336C47.3281 102.403 49.8202 101.172 51.414 99.219C52.6874 101.344 55.289 102.778 57.9726 102.59C60.4218 102.422 62.8046 101.051 64.5038 98.8987L64.4881 98.891Z" fill="black"/>
<path d="M87.488 85.969C86.9724 85.7776 86.3942 86.0393 86.2028 86.5589C85.2185 89.1956 82.484 91.0862 79.6716 91.0862H79.5623C76.7107 91.0354 73.9881 89.0354 73.0857 86.3284C72.9607 85.9534 72.6247 85.6838 72.2302 85.6487C71.8357 85.6135 71.4568 85.8127 71.2614 86.1604C69.9176 88.5979 67.6403 90.2073 65.32 90.3674C62.8473 90.5315 60.4177 88.7658 60.1169 86.5744C60.0544 86.1291 59.7029 85.7775 59.2576 85.7189C58.8123 85.6603 58.3787 85.9025 58.2068 86.3205C57.2458 88.5744 54.7615 90.1252 52.3279 90.1135C49.8787 90.0588 47.4802 88.3557 46.6248 86.0588C46.488 85.6955 46.156 85.4416 45.7693 85.4142C45.3787 85.3791 45.0115 85.5783 44.8201 85.9142C43.5349 88.172 40.8201 89.6174 38.2342 89.4338C35.6444 89.2502 33.1717 87.4338 32.2186 85.0158C32.0623 84.6173 31.66 84.3556 31.2342 84.3829C30.8045 84.4064 30.4373 84.6993 30.324 85.1134C29.6756 87.4572 27.3552 89.2384 24.9256 89.2579H24.8905C22.4725 89.2579 20.1444 87.5157 19.4686 85.1915C19.3162 84.6603 18.7576 84.3556 18.2303 84.5118C17.699 84.6642 17.3943 85.2228 17.5506 85.7501C18.4725 88.9103 21.6287 91.2696 24.9451 91.254C27.5154 91.2345 29.9959 89.7618 31.3787 87.6056C32.9256 89.7697 35.4256 91.2345 38.1014 91.4259C40.9061 91.6212 43.7147 90.4142 45.5545 88.3204C47.0233 90.5548 49.5936 92.0509 52.2928 92.1095C54.8397 92.1759 57.3201 90.9454 58.9139 88.9923C60.1873 91.1173 62.785 92.5509 65.4725 92.3634C67.9217 92.1955 70.3045 90.8243 72.0037 88.672C73.5779 91.2579 76.5037 93.0314 79.5428 93.0861H79.6834C83.3045 93.0861 86.8279 90.6525 88.0896 87.258C88.281 86.7385 88.0193 86.1642 87.4998 85.9728L87.488 85.969Z" fill="black"/>
</svg>
