<svg width="79" height="70" viewBox="0 0 79 70" fill="none" xmlns="http://www.w3.org/2000/svg">
<path fill-rule="evenodd" clip-rule="evenodd" d="M18.9048 38.1005L17.1598 39.9158L18.9762 41.6596L17.3231 43.3792L15.5067 41.6354L13.7617 43.4507L12.0409 41.7988L13.7859 39.9835L11.9695 38.2397L13.6225 36.52L15.439 38.2638L17.184 36.4485L18.9048 38.1005ZM47.245 54.1561L47.1732 50.5807L78.3047 49.9558L77.3099 0.234245L0.325439 1.77945L1.32343 51.501L32.4549 50.8761L32.5267 54.4515L23.0693 54.6413L15.2891 69.4928L65.0726 68.4936L56.7028 53.9662L47.245 54.1561ZM32.5738 56.8361L32.6934 62.7961L47.4158 62.5006L47.2961 56.5406L55.3452 56.3791L60.9967 66.1904L19.2715 67.0279L24.5247 56.9977L32.5738 56.8361ZM35.0318 60.3668L34.8404 50.8279L44.7868 50.6283L44.9783 60.1672L35.0318 60.3668ZM74.9682 2.66661L2.75961 4.11595L3.66188 49.0688L75.8737 47.6194L74.9682 2.66661ZM61.5467 9.19299C63.8585 9.14659 65.7707 10.9824 65.8171 13.2926C65.8596 15.4087 62.808 19.2637 61.7807 20.8509C60.6905 19.3062 57.4867 15.5767 57.4442 13.4607C57.3978 11.1504 59.2349 9.2394 61.5467 9.19299ZM61.5985 11.775C63.7095 11.7327 63.7738 14.9359 61.6628 14.9783C59.5517 15.0207 59.4874 11.8174 61.5985 11.775ZM26.5286 15.3048L21.9956 15.3958L23.3064 17.4444L14.2602 17.6259L18.6351 10.1514L21.1965 14.1494L23.3887 10.4056C24.4354 12.0387 25.4819 13.6717 26.5286 15.3048ZM23.3132 38.7564C35.5324 38.5112 59.2981 39.1671 60.606 33.9747C61.212 31.5672 50.7338 30.1073 48.3741 29.7015C42.907 28.7592 30.9487 27.3225 32.3963 21.1564L32.393 21.1565C33.4882 16.4927 44.337 15.0903 50.6933 14.5322L50.8996 16.9039C45.9267 17.3404 35.406 18.7654 34.716 21.6957L34.7096 21.6958C33.8739 25.2473 45.3347 26.7652 48.7704 27.3566C53.5386 28.177 64.2064 29.4 62.9077 34.5566C61.1078 41.7107 37.4749 40.8644 23.3585 41.1478L23.3132 38.7564Z" fill="black"/>
</svg>
