<svg width="88" height="60" viewBox="0 0 88 60" fill="none" xmlns="http://www.w3.org/2000/svg">
<path d="M87.5 26.55C87.5 17.15 71.8 9.34999 50.3 8.04999C50 8.04999 49.8 8.24999 49.8 8.54999C49.8 8.84999 50 9.04999 50.3 9.04999C71 10.35 86.6 17.85 86.6 26.55V26.65C86.5 36.35 67.4 44.35 44 44.35C20.5 44.35 1.40002 36.35 1.40002 26.65C1.40002 18.25 15.8 10.95 35.6 9.24999C35.9 9.24999 36.1 8.94999 36.1 8.74999C36.1 8.44999 35.8 8.24999 35.6 8.24999C15.2 9.84999 0.400024 17.65 0.400024 26.55V40.75C0.400024 51.05 20 59.45 44 59.45C68 59.45 87.6 51.05 87.6 40.75L87.5 26.55ZM86.5 40.75C86.5 50.55 67.4 58.45 43.9 58.45C20.4 58.45 1.30002 50.45 1.30002 40.75V30.55C5.60002 38.95 23.1 45.35 44 45.35C64.9 45.35 82.3 39.05 86.6 30.65V40.75H86.5Z" fill="black"/>
<path d="M50.3 13.65C50.1 13.65 50 13.75 50 13.85C50 13.95 50.1 14.15 50.2 14.15C66.6 15.25 79.3 20.45 81.1 26.85C81.1 26.95 81 27.05 81 27.15C81 27.25 80.9 27.35 80.9 27.45C80.9 27.55 80.8 27.65 80.7 27.75C80.6 27.85 80.6 27.95 80.5 28.05C80.4 28.15 80.4 28.25 80.3 28.35C80.2 28.45 80.2 28.55 80.1 28.65C80 28.75 79.9 28.85 79.9 28.95C79.8 29.05 79.7 29.15 79.7 29.25C79.6 29.35 79.5 29.45 79.4 29.55C79.3 29.65 79.2 29.75 79.1 29.85C79 29.95 78.9 30.05 78.8 30.15C78.7 30.25 78.6 30.35 78.5 30.45C78.4 30.55 78.3 30.65 78.2 30.75C78.1 30.85 78 30.95 77.9 31.05C77.8 31.15 77.7 31.25 77.5 31.35C77.4 31.45 77.2 31.55 77.1 31.65C77 31.75 76.8 31.85 76.7 31.95C76.6 32.05 76.4 32.15 76.3 32.25C76.2 32.35 76 32.45 75.9 32.55C75.8 32.65 75.6 32.75 75.5 32.85C75.3 32.95 75.2 33.05 75 33.15C74.8 33.25 74.7 33.35 74.5 33.45C74.3 33.55 74.2 33.65 74 33.75C73.8 33.85 73.7 33.95 73.5 34.05C73.3 34.15 73.2 34.25 73 34.25C72.8 34.35 72.6 34.45 72.5 34.55C72.3 34.65 72.1 34.75 72 34.75C71.8 34.85 71.6 34.95 71.4 34.95C71.2 35.05 71 35.15 70.8 35.15C70.6 35.25 70.4 35.35 70.2 35.35C70 35.45 69.8 35.45 69.6 35.55C69.4 35.65 69.2 35.75 69 35.75C68.8 35.85 68.6 35.85 68.4 35.95C68.2 36.05 68 36.05 67.8 36.15C67.6 36.25 67.4 36.25 67.1 36.35C66.9 36.45 66.7 36.45 66.4 36.55C66.2 36.95 66 36.95 65.7 37.05C65.5 37.15 65.2 37.15 65 37.25C64.8 37.35 64.5 37.35 64.3 37.45C64.1 37.55 63.8 37.55 63.6 37.65C63.3 37.75 63.1 37.75 62.8 37.85C62.6 37.95 62.3 37.95 62.1 38.05C61.9 38.15 61.6 38.15 61.3 38.25C61.1 38.35 60.8 38.35 60.6 38.45C60.3 38.45 60.1 38.55 59.8 38.55C59.5 38.55 59.3 38.65 59 38.65C58.7 38.65 58.5 38.75 58.2 38.75C57.9 38.75 57.7 38.85 57.4 38.85C57.1 38.85 56.9 38.95 56.6 38.95C56.3 38.95 56.1 39.05 55.8 39.05C55.5 39.05 55.3 39.15 55 39.15C54.7 39.15 54.4 39.25 54.1 39.25C53.8 39.25 53.5 39.35 53.3 39.35C53 39.35 52.8 39.45 52.5 39.45C52.2 39.45 51.9 39.45 51.6 39.55C51.3 39.55 51.1 39.55 50.8 39.65C50.5 39.65 50.2 39.65 49.9 39.75C49.6 39.75 49.4 39.75 49.1 39.85C48.8 39.85 48.4 39.85 48.1 39.85C47.9 39.85 47.6 39.85 47.4 39.85C47.1 39.85 46.8 39.85 46.5 39.85C46.2 39.85 45.9 39.85 45.6 39.85C45 39.85 44.4 39.85 43.8 39.85C43.2 39.85 42.6 39.85 42 39.85C41.7 39.85 41.4 39.85 41.1 39.85C40.8 39.85 40.5 39.85 40.2 39.85C39.9 39.85 39.7 39.85 39.4 39.85C39.1 39.85 38.7 39.85 38.4 39.85C38.1 39.85 37.9 39.85 37.6 39.75C37.3 39.75 37 39.75 36.7 39.65C36.4 39.65 36.1 39.55 35.8 39.55C35.5 39.55 35.3 39.55 35 39.45C34.7 39.45 34.4 39.35 34.1 39.35C33.9 39.35 33.6 39.35 33.4 39.25C33.1 39.25 32.8 39.15 32.5 39.15C32.2 39.15 32 39.05 31.7 39.05C31.4 39.05 31.1 38.95 30.9 38.95C30.6 38.95 30.4 38.85 30.1 38.85C29.8 38.85 29.6 38.75 29.3 38.75C29 38.75 28.8 38.65 28.5 38.65C28.2 38.65 28 38.55 27.7 38.55C27.5 38.55 27.2 38.45 27 38.45C26.7 38.35 26.5 38.35 26.2 38.25C26.2 37.95 26 37.95 25.7 37.95C25.4 37.85 25.2 37.85 24.9 37.75C24.7 37.75 24.5 37.65 24.2 37.65C23.9 37.55 23.7 37.55 23.4 37.45C23.2 37.35 23 37.35 22.8 37.25C22.5 37.15 22.2 37.05 22 37.05C21.8 37.05 21.6 36.95 21.5 36.95C21.2 36.85 21 36.75 20.7 36.75C20.5 36.65 20.4 36.65 20.2 36.55C19.9 36.45 19.7 36.35 19.4 36.25C19.2 36.15 19.1 36.15 18.9 36.05C18.7 35.95 18.4 35.85 18.2 35.75C18 35.65 17.9 35.65 17.7 35.55C17.5 35.45 17.2 35.35 17 35.25C16.8 35.15 16.7 35.15 16.5 35.05C16.3 34.95 16 34.85 15.8 34.75C15.7 34.65 15.5 34.65 15.4 34.55C15.2 34.45 15 34.35 14.7 34.25C14.6 34.15 14.4 34.15 14.3 34.05C14.1 33.95 13.9 33.85 13.7 33.75C13.6 33.65 13.5 33.65 13.3 33.55C13.1 33.45 12.9 33.35 12.7 33.25C12.6 33.15 12.5 33.15 12.4 33.05C12.2 32.95 12 32.85 11.8 32.65C11.7 32.55 11.6 32.55 11.5 32.45C11.3 32.35 11.1 32.25 11 32.05C10.9 31.95 10.8 31.95 10.7 31.85C10.5 31.75 10.4 31.55 10.2 31.45C10.1 31.35 10 31.35 9.9 31.25C9.7 31.15 9.6 30.95 9.5 30.85C9.4 30.75 9.3 30.75 9.2 30.65C9.1 30.55 8.9 30.35 8.8 30.25C8.7 30.15 8.6 30.05 8.6 30.05C8.5 29.95 8.4 29.75 8.3 29.65C8.2 29.55 8.2 29.45 8.1 29.45C8 29.35 7.9 29.15 7.8 29.05C7.7 28.95 7.7 28.85 7.6 28.75C7.5 28.65 7.4 28.45 7.4 28.35C7.3 28.25 7.3 28.15 7.2 28.05C7.1 27.95 7.1 27.75 7 27.65C7 27.55 6.9 27.45 6.9 27.35C6.8 27.25 6.8 27.05 6.8 26.95C6.8 26.85 6.7 26.75 6.7 26.65C8.5 20.55 20 15.55 35.5 14.15C35.6 14.15 35.7 14.05 35.7 13.85C35.7 13.75 35.6 13.65 35.4 13.65C20.4 14.95 9 19.75 6.4 25.65C6.4 25.45 6.4 25.25 6.4 25.05C6.4 18.35 18.6 12.45 35.5 10.95C35.6 10.95 35.7 10.85 35.7 10.65C35.7 10.55 35.6 10.45 35.4 10.45C18.1 12.25 6 18.25 6 25.25C6 25.85 6.1 26.35 6.2 26.85C8.3 34.45 24.5 40.15 43.9 40.15C48.8 40.15 53.4 39.75 57.7 39.15C70.6 37.15 80.1 32.55 81.6 26.85C81.7 26.35 81.8 25.75 81.8 25.25C81.8 17.95 68.5 11.75 50.2 10.55C50 10.55 49.9 10.65 49.9 10.75C49.9 10.85 50 11.05 50.1 11.05C68.1 12.25 81.2 18.25 81.2 25.25C81.2 25.45 81.2 25.65 81.2 25.85C78.7 19.65 66.2 14.75 50.3 13.65Z" fill="black"/>
<path d="M38.3 18.75C38.6 18.75 38.8 18.55 38.8 18.25V16.35H47.3V18.25C47.3 18.55 47.5 18.75 47.8 18.75C48.1 18.75 48.3 18.55 48.3 18.25V3.54999C48.3 2.44999 49.2 1.54999 50.3 1.54999C51.4 1.54999 52.3 2.44999 52.3 3.54999C52.3 3.84999 52.5 4.04999 52.8 4.04999C53.1 4.04999 53.3 3.84999 53.3 3.54999C53.3 1.84999 51.9 0.549988 50.3 0.549988C48.7 0.549988 47.3 1.94999 47.3 3.54999V5.94999H38.8V3.54999C38.8 2.44999 39.7 1.54999 40.8 1.54999C41.9 1.54999 42.8 2.44999 42.8 3.54999C42.8 3.84999 43 4.04999 43.3 4.04999C43.6 4.04999 43.8 3.84999 43.8 3.54999C43.8 1.84999 42.4 0.549988 40.8 0.549988C39.2 0.549988 37.8 1.94999 37.8 3.54999V18.25C37.8 18.55 38 18.75 38.3 18.75ZM47.3 12.25H38.8V10.15H47.3V12.25ZM38.8 15.35V13.25H47.3V15.35H38.8ZM47.3 6.94999V9.04999H38.8V6.94999H47.3Z" fill="black"/>
<path d="M31.2001 17.65H27.4001C27.3001 17.65 27.2001 17.75 27.2001 17.85C27.2001 17.95 27.3001 18.05 27.4001 18.05H31.2001C31.3001 18.05 31.4001 17.95 31.4001 17.85C31.4001 17.75 31.3001 17.65 31.2001 17.65Z" fill="black"/>
<path d="M34 17.65C33.9 17.65 33.8 17.75 33.8 17.85C33.8 17.95 33.9 18.05 34 18.05H36C36.1 18.05 36.2001 17.95 36.2001 17.85C36.2001 17.75 36.1 17.65 36 17.65H34Z" fill="black"/>
<path d="M60.5001 17.65H52.4001C52.3001 17.65 52.2001 17.75 52.2001 17.85C52.2001 17.95 52.3001 18.05 52.4001 18.05H60.5001C60.6001 18.05 60.7001 17.95 60.7001 17.85C60.7001 17.75 60.6001 17.65 60.5001 17.65Z" fill="black"/>
<path d="M30.7001 20.55C30.8001 20.55 30.9001 20.45 30.9001 20.35C30.9001 20.25 30.8001 20.15 30.7001 20.15H19.4001C19.3001 20.15 19.2001 20.25 19.2001 20.35C19.2001 20.45 19.3001 20.55 19.4001 20.55H30.7001Z" fill="black"/>
<path d="M43.4001 20.05H36C35.9 20.05 35.8 20.15 35.8 20.25C35.8 20.35 35.9 20.45 36 20.45H43.4001C43.5001 20.45 43.6 20.35 43.6 20.25C43.6 20.15 43.5001 20.05 43.4001 20.05Z" fill="black"/>
<path d="M47.1 20.25C47.1 20.35 47.2 20.45 47.3 20.45H58.9C59 20.45 59.1 20.35 59.1 20.25C59.1 20.15 59 20.05 58.9 20.05H47.3C47.2 20.05 47.1 20.15 47.1 20.25Z" fill="black"/>
<path d="M68.5 20.55C68.6 20.55 68.7 20.45 68.7 20.35C68.7 20.25 68.6 20.15 68.5 20.15H63.3C63.2 20.15 63.1 20.25 63.1 20.35C63.1 20.45 63.2 20.55 63.3 20.55H68.5Z" fill="black"/>
<path d="M57.9 23.55C57.9 23.65 58 23.75 58.1 23.75H74.4C74.5 23.75 74.6 23.65 74.6 23.55C74.6 23.45 74.5 23.35 74.4 23.35H58.2C58 23.35 57.9 23.45 57.9 23.55Z" fill="black"/>
<path d="M53.7001 23.35H41.4001C41.3001 23.35 41.2001 23.45 41.2001 23.55C41.2001 23.65 41.3001 23.75 41.4001 23.75H53.7001C53.8001 23.75 53.9001 23.65 53.9001 23.55C53.9001 23.45 53.8001 23.35 53.7001 23.35Z" fill="black"/>
<path d="M23.8 23.55C23.8 23.65 23.9 23.75 24 23.75H38.3C38.4 23.75 38.5 23.65 38.5 23.55C38.5 23.45 38.4 23.35 38.3 23.35H24C23.9 23.35 23.8 23.45 23.8 23.55Z" fill="black"/>
<path d="M13.2001 23.55C13.2001 23.65 13.3001 23.75 13.4001 23.75H19.7001C19.8001 23.75 19.9001 23.65 19.9001 23.55C19.9001 23.45 19.8001 23.35 19.7001 23.35H13.4001C13.3001 23.35 13.2001 23.45 13.2001 23.55Z" fill="black"/>
<path d="M32.6 27.75C32.6 27.65 32.5 27.55 32.4 27.55H11.2C11.1 27.55 11 27.65 11 27.75C11 27.85 11 27.95 11.2 27.95H32.4C32.5 27.95 32.6 27.85 32.6 27.75Z" fill="black"/>
<path d="M42.6 27.95C42.7 27.95 42.8 27.85 42.8 27.75C42.8 27.65 42.7 27.55 42.6 27.55H36.3C36.2 27.55 36.1 27.65 36.1 27.75C36.1 27.85 36.2 27.95 36.3 27.95H42.6Z" fill="black"/>
<path d="M47.3 27.75C47.3 27.85 47.4 27.95 47.5 27.95H76.7C76.8 27.95 76.9001 27.85 76.9001 27.75C76.9001 27.65 76.8 27.55 76.7 27.55H47.6C47.4 27.45 47.3 27.65 47.3 27.75Z" fill="black"/>
<path d="M63.2 32.15C63.1 32.15 63 32.25 63 32.35C63 32.45 63.1 32.55 63.2 32.55H71.1C71.2 32.55 71.3 32.45 71.3 32.35C71.3 32.25 71.2 32.15 71.1 32.15H63.2Z" fill="black"/>
<path d="M60.1001 32.45C60.1001 32.35 60.0001 32.25 59.9001 32.25H26.9001C26.8001 32.25 26.7001 32.35 26.7001 32.45C26.7001 32.55 26.8001 32.65 26.9001 32.65H59.8001C60.0001 32.65 60.1001 32.55 60.1001 32.45Z" fill="black"/>
<path d="M16.8 32.15C16.7 32.15 16.6 32.25 16.6 32.35C16.6 32.45 16.7 32.55 16.8 32.55H23.1C23.2 32.55 23.3 32.45 23.3 32.35C23.3 32.25 23.2 32.15 23.1 32.15H16.8Z" fill="black"/>
<path d="M40.4001 37.35C40.3001 37.35 40.2001 37.45 40.2001 37.55C40.2001 37.65 40.3001 37.75 40.4001 37.75H47.6001C47.7001 37.75 47.8001 37.65 47.8001 37.55C47.8001 37.45 47.7001 37.35 47.6001 37.35H40.4001Z" fill="black"/>
</svg>
