<svg width="96" height="58" viewBox="0 0 96 58" fill="none" xmlns="http://www.w3.org/2000/svg">
<path d="M81.4741 21.5515C75.4952 20.9897 71.6468 18.3531 65.8368 14.3711C62.8104 12.3009 59.3802 9.95603 54.8933 7.35709C42.7851 0.371333 32.2271 4.91783 30.1126 5.97166C18.2917 -0.362674 3.39764 1.00475 1.87234 1.1592C1.70091 1.15548 1.54319 1.21427 1.41431 1.3125C1.39496 1.32631 1.38186 1.34482 1.36395 1.36035C1.32344 1.39765 1.28533 1.43644 1.25415 1.48284C1.22303 1.52512 1.20084 1.57043 1.1786 1.61986C1.1746 1.62902 1.16796 1.63572 1.16493 1.64466C1.13519 1.69278 1.12491 1.7363 1.11463 1.77982C1.1167 1.78858 1.11121 1.80016 1.1123 1.80914L1.11104 1.81252C1.11104 1.81252 1.1115 1.81447 1.11099 1.81665C-0.148178 8.75021 2.11384 16.1978 7.62092 23.3419C9.38087 25.6185 11.1847 27.5149 12.7059 28.954C12.9552 30.272 13.9902 37.6618 8.10657 44.3829C7.92177 44.6011 7.86929 44.9012 7.97023 45.1548C8.07347 45.4181 8.32325 45.6058 8.6067 45.6314C8.63819 45.6342 12.3873 46.0646 18.8283 52.0246C21.6054 54.6057 25.6188 56.3301 30.2551 57.1676C30.3421 57.1881 30.4389 57.2064 30.5236 57.2172C30.5334 57.2149 30.5334 57.2149 30.5334 57.2149C35.6736 58.0979 41.5632 57.8896 47.3931 56.5139C49.0671 56.1188 50.7473 55.6196 52.3972 55.035C53.5427 54.6208 54.5617 54.2365 55.4736 53.8775C55.5222 53.866 55.5783 53.8425 55.6344 53.819C58.7457 52.5916 60.606 51.6799 62.0611 50.9666C64.6198 49.7052 66.0165 49.0057 71.0777 48.1607C80.4392 46.5988 85.5193 42.1326 85.8221 38.4959C87.5045 37.8317 88.9744 37.0944 90.2291 36.3154C93.6822 34.1853 95.5197 31.6967 95.5603 28.9952C95.6289 23.6259 88.8313 22.2504 81.4741 21.5515ZM89.1032 35.2453C86.7954 36.6119 83.7254 37.8399 79.9887 38.8553C70.1051 41.5576 67.0483 42.8851 66.9264 42.9345C66.5457 43.1065 66.3822 43.5458 66.5445 43.9287C66.6953 44.263 67.0545 44.4352 67.4048 44.3525C67.4438 44.3433 67.4924 44.3318 67.5291 44.3129C67.5657 44.294 70.6517 42.9595 80.3916 40.3014C81.7427 39.9312 83.0067 39.5404 84.1814 39.1193C83.258 41.9984 78.3834 45.4195 70.8328 46.6876C65.5552 47.5734 63.9902 48.3434 61.4023 49.6117C60.0766 50.2636 58.4115 51.0881 55.7364 52.1612C54.8502 48.9283 58.6627 44.751 62.6869 40.3388C66.2853 36.3866 70.0091 32.3125 70.7183 28.3948C71.0817 26.4083 69.4155 21.2634 66.0671 18.0465C63.1811 15.265 59.5342 14.2659 55.5397 15.1469C49.4974 16.4495 44.5431 24.0609 41.4374 30.188C37.9205 37.1416 35.4988 44.7307 35.0265 48.3459C34.6173 51.4015 33.4774 53.2323 32.4176 54.3146C31.5473 55.1981 30.7419 55.5732 30.4224 55.6999C26.1154 54.908 22.4085 53.3066 19.8446 50.932C15.1218 46.5495 11.7321 44.9863 10.0099 44.4371C14.2585 39.0164 14.6087 33.4471 14.4075 30.5047C15.5659 31.4951 16.325 32.0557 16.3995 32.1101C16.7335 32.3498 17.2001 32.2807 17.4495 31.9445C17.6892 31.6105 17.6202 31.1439 17.2839 30.8944C17.1109 30.7709 0.251117 18.2792 2.47407 2.79472C2.47361 2.79278 2.4751 2.79037 2.4751 2.79037C5.68775 3.43369 18.7952 6.73853 25.277 18.753C25.4413 19.0574 25.7869 19.2029 26.1091 19.1269C26.1714 19.1122 26.2338 19.0892 26.2931 19.0578C26.6576 18.8608 26.7937 18.4054 26.5967 18.0409C21.5155 8.62208 12.5802 4.31417 6.97894 2.45702C6.98501 2.45661 6.99131 2.45718 6.99738 2.45678C12.661 2.46623 22.0475 3.23077 29.7386 7.47784C29.9746 7.60709 30.2511 7.60347 30.4761 7.46819C30.586 7.41143 41.4023 1.30386 54.1412 8.65452C58.5799 11.2237 61.9861 13.5537 64.9885 15.609C70.7743 19.5762 74.9642 22.4405 81.333 23.0438C82.7623 23.1791 84.0531 23.3369 85.215 23.5148C85.0125 23.7886 84.8478 24.1357 84.7794 24.5423C84.5911 25.5731 85.0207 26.6533 86.0687 27.7417C86.5208 28.2207 86.9207 28.6092 87.2679 28.9485C88.9467 30.5765 89.2916 30.9061 89.1032 35.2453ZM55.8605 23.1676C56.2127 22.3961 57.2914 20.436 59.2999 20.2394C61.2987 20.0451 62.2446 21.7022 62.4969 22.2488C62.3941 22.6841 61.8922 23.9533 59.4698 24.2681C57.1956 24.5582 56.2061 23.6306 55.8605 23.1676Z" fill="black"/>
</svg>
