<svg width="102" height="127" viewBox="0 0 102 127" fill="none" xmlns="http://www.w3.org/2000/svg">
<path d="M36.4956 73.1843C55.2138 84.9323 79.6716 68.1289 75.2148 46.4355C82.1343 40.7587 100.316 25.454 96.95 20.1574C95.7841 18.4892 92.7509 18.4845 87.6753 20.1434C83.2114 21.6028 77.2464 24.3427 70.4251 28.0666C69.5403 28.5624 70.1842 29.91 71.1311 29.5296C75.173 27.9136 82.5078 25.0913 84.8654 26.4881C85.2765 27.0774 84.2465 29.9141 77.4052 36.4386C76.1071 37.6767 74.6862 38.9662 73.1599 40.2935C71.059 35.9471 67.7699 32.2789 63.6704 29.7105C59.571 27.142 54.8273 25.7773 49.9843 25.7731C27.5604 25.6032 15.8788 53.1541 31.3344 69.0018C25.194 72.4127 16.6236 75.5294 16.0393 74.1956C15.5438 73.4867 16.903 69.5182 24.2672 61.7779C24.9621 61.0557 23.9182 59.9399 23.1452 60.5993C-11.2031 89.8 7.55719 90.9117 36.4956 73.1843ZM73.7664 47.6057C74.6277 52.7466 73.6167 58.3753 71.1787 62.7677C64.1947 71.6668 52.389 75.566 42.1115 69.8315C52.549 63.4421 64.3893 55.1422 73.7664 47.6057ZM30.2836 42.2058C34.4831 21.454 64.9481 24.0217 71.8768 41.3971C62.3173 49.5794 48.0402 59.5632 36.8744 65.9504C35.704 64.8136 34.6193 63.5924 33.6292 62.2966C29.6412 55.4667 28.9496 49.934 30.2836 42.2058Z" fill="black"/>
<path d="M6.50159 26.1406L10.3519 26.8551C10.5979 26.9 10.9741 27.3869 11.0402 28.1836L11.5412 34.2313C11.558 34.4346 11.651 34.6242 11.8016 34.7624C11.9523 34.9006 12.1496 34.9773 12.3545 34.9773C12.5593 34.9773 12.7566 34.9006 12.9073 34.7624C13.0579 34.6242 13.1509 34.4346 13.1677 34.2313L13.6681 28.1838C13.734 27.3871 14.1104 26.9002 14.3572 26.8551L18.2518 26.1384C18.4395 26.104 18.6092 26.005 18.7313 25.8588C18.8534 25.7126 18.9201 25.5284 18.9199 25.3382C18.9197 25.1481 18.8526 24.964 18.7302 24.8181C18.6078 24.6721 18.438 24.5735 18.2502 24.5394L14.3566 23.8309C14.1106 23.7858 13.7342 23.2991 13.6683 22.5021L13.1677 16.4545C13.1506 16.2514 13.0575 16.0621 12.9069 15.9242C12.7563 15.7862 12.5592 15.7097 12.3546 15.7097C12.15 15.7097 11.9528 15.7862 11.8022 15.9242C11.6516 16.0621 11.5585 16.2514 11.5414 16.4545L11.0404 22.5019C10.9743 23.2989 10.5981 23.7856 10.3503 23.8309L6.502 24.5421C5.63051 24.6918 5.6248 25.9903 6.50159 26.1406Z" fill="black"/>
<path d="M56.1872 90.2314L52.2935 89.5228C52.0474 89.4777 51.6713 88.991 51.6052 88.1941L51.1042 82.1467C51.087 81.9436 50.994 81.7543 50.8434 81.6163C50.6928 81.4784 50.4956 81.4018 50.291 81.4018C50.0864 81.4018 49.8893 81.4784 49.7387 81.6163C49.588 81.7543 49.495 81.9436 49.4779 82.1467L48.9768 88.1941C48.9107 88.991 48.5346 89.4777 48.2867 89.523L44.4385 90.2342C44.2511 90.2689 44.0819 90.3678 43.9602 90.5138C43.8384 90.6597 43.7717 90.8435 43.7717 91.0333C43.7717 91.2231 43.8384 91.4069 43.9602 91.5528C44.0819 91.6988 44.2511 91.7977 44.4385 91.8324L48.2887 92.5468C48.5348 92.5919 48.9109 93.0786 48.977 93.8754L49.4781 99.923C49.4952 100.126 49.5883 100.315 49.7389 100.453C49.8895 100.591 50.0866 100.668 50.2912 100.668C50.4958 100.668 50.693 100.591 50.8436 100.453C50.9942 100.315 51.0873 100.126 51.1044 99.923L51.6054 93.8754C51.6715 93.0786 52.0477 92.5919 52.2947 92.5466L56.1893 91.8299C57.063 91.681 57.0667 90.3795 56.1872 90.2314Z" fill="black"/>
<path d="M71.1844 11.3492L75.0347 12.0638C75.2807 12.1087 75.6571 12.5954 75.723 13.3923L76.224 19.44C76.3109 20.4153 77.7614 20.4255 77.8505 19.44L78.3517 13.3923C78.4176 12.5954 78.7938 12.1087 79.0408 12.0636L82.9354 11.3469C83.8095 11.1976 83.8126 9.89607 82.9336 9.74794L79.04 9.03918C78.794 8.99427 78.4178 8.50761 78.3517 7.71066L77.8507 1.66322C77.775 0.687861 76.3003 0.684609 76.2242 1.66322L75.7232 7.71066C75.6573 8.50761 75.2809 8.99427 75.0333 9.03958L71.185 9.75078C70.3109 9.90176 70.3088 11.198 71.1844 11.3492Z" fill="black"/>
<path d="M24.0812 26.1557H26.0508C27.1228 26.1376 27.1236 24.5482 26.0508 24.5301H24.0805C23.0049 24.5571 23.0051 26.1287 24.0812 26.1557Z" fill="black"/>
<path d="M31.7697 12.2395C31.7103 13.3191 33.3201 13.4339 33.4166 12.3574C33.4763 11.2776 31.8658 11.163 31.7697 12.2395Z" fill="black"/>
<path d="M56.8141 15.3138C56.7547 16.3932 58.3645 16.5082 58.461 15.4314C58.5204 14.3522 56.9104 14.2372 56.8141 15.3138Z" fill="black"/>
<path d="M13.1534 52.5635C13.0943 53.6429 14.7038 53.758 14.8003 52.6812C14.8597 51.6018 13.2495 51.4868 13.1534 52.5635Z" fill="black"/>
<path d="M23.9048 93.9979C24.9884 94.057 25.1041 92.4535 24.0231 92.3574C22.9394 92.2985 22.824 93.9021 23.9048 93.9979Z" fill="black"/>
<path d="M86.491 81.0174C86.5502 79.938 84.9406 79.823 84.8441 80.8998C84.785 81.9792 86.3949 82.094 86.491 81.0174Z" fill="black"/>
<path d="M67.6871 82.6544C66.6035 82.5953 66.488 84.1987 67.569 84.2947C68.6525 84.3538 68.7683 82.7499 67.6871 82.6544Z" fill="black"/>
<path d="M91.1051 56.3561C91.1644 55.2765 89.5547 55.1615 89.4584 56.2383C89.399 57.3177 91.0092 57.4327 91.1051 56.3561Z" fill="black"/>
</svg>
