<svg width="92" height="99" viewBox="0 0 92 99" fill="none" xmlns="http://www.w3.org/2000/svg">
<g clip-path="url(#clip0_414_142)">
<path d="M51.616 42.9295C51.5586 43.0308 51.5379 43.1489 51.5573 43.2636C51.5768 43.3784 51.6352 43.4828 51.7227 43.5592L53.7402 45.3207C54.1019 45.6374 54.3568 46.0587 54.4699 46.5267C54.583 46.9948 54.5488 47.4869 54.3719 47.9355L52.8067 51.893C52.5921 52.4201 53.3204 52.845 53.6708 52.3899L56.139 49.2546C56.4341 48.8823 56.8348 48.6083 57.2882 48.4688C57.7416 48.3294 58.2262 48.3311 58.6778 48.4738L61.3888 49.3396C61.904 49.512 62.2919 48.8079 61.863 48.4667L59.811 46.7863C59.4368 46.4796 59.1676 46.0635 59.0407 45.5959C58.9138 45.1282 58.9355 44.6321 59.1029 44.1767L60.2155 41.1542C60.4072 40.6553 59.7465 40.2368 59.3786 40.6314L57.1879 42.9227C56.884 43.2382 56.4982 43.4625 56.0742 43.5701C55.6502 43.6776 55.2049 43.6642 54.7887 43.5313L52.21 42.6973C52.0996 42.6617 51.9803 42.6653 51.8721 42.7076C51.7639 42.7499 51.6734 42.8283 51.616 42.9295ZM54.4773 44.4927C56.0843 44.9865 57.4048 44.3169 58.4337 43.0793C57.692 44.7014 57.7467 46.3596 59.1738 47.5704C57.5667 46.9719 55.9339 47.6512 55.0122 49.0574C55.8344 47.3409 55.7685 45.6939 54.2418 44.4166L54.4773 44.4927Z" fill="black"/>
<path d="M17.4069 46.9439L19.4244 48.7054C19.7861 49.0221 20.041 49.4433 20.1541 49.9114C20.2672 50.3795 20.2329 50.8716 20.0561 51.3202L18.4909 55.2775C18.2764 55.8052 19.0045 56.2294 19.355 55.7746L21.8233 52.6395C22.1183 52.2671 22.519 51.9931 22.9724 51.8536C23.4257 51.7142 23.9103 51.7159 24.362 51.8586L27.073 52.7243C27.5882 52.8967 27.976 52.1925 27.5471 51.8513L25.4952 50.171C25.121 49.8643 24.8517 49.4483 24.7248 48.9806C24.5979 48.5129 24.6197 48.0168 24.7871 47.5614L25.8997 44.5388C26.0915 44.0399 25.4308 43.6215 25.0628 44.0161L22.8721 46.3073C22.5683 46.6228 22.1826 46.847 21.7587 46.9545C21.3347 47.062 20.8896 47.0485 20.4735 46.9156L17.8947 46.0816C17.3876 45.9093 16.9946 46.5945 17.4069 46.9439Z" fill="black"/>
<path d="M35.383 24.8668L37.4005 26.6283C37.7624 26.945 38.0173 27.3662 38.1305 27.8344C38.2437 28.3025 38.2095 28.7946 38.0327 29.2433L36.4675 33.2007C36.253 33.7282 36.981 34.1525 37.3315 33.6978L39.8 30.5629C40.095 30.1905 40.4957 29.9164 40.9491 29.777C41.4025 29.6375 41.8871 29.6393 42.3387 29.782L45.0497 30.6477C45.5649 30.8202 45.9527 30.1159 45.5238 29.7747L43.4718 28.0943C43.0976 27.7877 42.8284 27.3716 42.7015 26.9039C42.5746 26.4362 42.5964 25.9402 42.7639 25.4847L43.8764 22.4622C44.0681 21.9634 43.4075 21.5449 43.0395 21.9394L40.8489 24.2307C40.545 24.5464 40.1591 24.7706 39.7351 24.8782C39.311 24.9858 38.8657 24.9723 38.4495 24.8393L35.8708 24.0054C35.3635 23.8328 34.9707 24.5175 35.383 24.8668ZM38.1375 25.8003C39.7452 26.2944 41.0647 25.6251 42.0942 24.3869C41.3527 26.0142 41.4049 27.6616 42.8342 28.8782C41.227 28.2795 39.5943 28.9587 38.6725 30.365C39.4947 28.6485 39.4288 27.0014 37.902 25.7241L38.1375 25.8003Z" fill="black"/>
<path d="M70.4235 30.2855L72.4411 32.047C72.8028 32.3637 73.0576 32.785 73.1707 33.2531C73.2838 33.7212 73.2496 34.2132 73.0728 34.6618L71.5076 38.6192C71.2931 39.1467 72.0211 39.571 72.3716 39.1163L74.84 35.981C75.135 35.6087 75.5358 35.3346 75.9891 35.1952C76.4425 35.0557 76.9271 35.0574 77.3787 35.2001L80.0897 36.0658C80.6049 36.2383 80.9927 35.534 80.5638 35.1928L78.5118 33.5125C78.1376 33.2058 77.8684 32.7898 77.7415 32.3221C77.6146 31.8545 77.6364 31.3584 77.8038 30.903L78.9163 27.8805C79.1082 27.3814 78.4468 26.9628 78.0794 27.3577L75.8888 29.649C75.5849 29.9645 75.1991 30.1886 74.775 30.2961C74.351 30.4036 73.9058 30.3901 73.4897 30.2571L70.9112 29.4228C70.4037 29.2509 70.0109 29.9361 70.4235 30.2855Z" fill="black"/>
<path d="M24.9041 38.8426C25.5688 38.7496 25.45 37.7574 24.7824 37.8276C24.1183 37.9208 24.237 38.9129 24.9041 38.8426Z" fill="black"/>
<path d="M29.4424 43.602C28.7777 43.695 28.8965 44.6871 29.5641 44.617C30.2281 44.5237 30.1095 43.5316 29.4424 43.602Z" fill="black"/>
<path d="M39.7743 38.9112C39.1099 39.0041 39.2287 39.9963 39.8961 39.9261C40.5602 39.833 40.4415 38.8408 39.7743 38.9112Z" fill="black"/>
<path d="M29.6454 33.0715C30.3099 32.9786 30.1912 31.9865 29.5236 32.0566C28.8595 32.1498 28.9782 33.142 29.6454 33.0715Z" fill="black"/>
<path d="M17.432 42.6442C18.0966 42.5512 17.9778 41.559 17.3103 41.6291C16.6458 41.7229 16.7649 42.7145 17.432 42.6442Z" fill="black"/>
<path d="M14.5414 53.0421C15.206 52.9491 15.0872 51.9569 14.4196 52.027C13.7555 52.1203 13.8741 53.1127 14.5414 53.0421Z" fill="black"/>
<path d="M19.4348 59.0335C18.7702 59.1265 18.889 60.1187 19.5565 60.0486C20.2207 59.9554 20.1019 58.9632 19.4348 59.0335Z" fill="black"/>
<path d="M30.6767 59.2757C30.7678 59.9413 31.7584 59.8198 31.6901 59.1512C31.5989 58.4856 30.6082 58.6075 30.6767 59.2757Z" fill="black"/>
<path d="M36.8617 50.8802C37.5262 50.7871 37.4074 49.7951 36.7399 49.8652C36.0758 49.9583 36.1946 50.9505 36.8617 50.8802Z" fill="black"/>
<path d="M66.3491 49.4464C65.6845 49.5394 65.8033 50.5316 66.4708 50.4615C67.135 50.3682 67.0163 49.3761 66.3491 49.4464Z" fill="black"/>
<path d="M46.0834 53.9483C46.7479 53.8553 46.6291 52.8631 45.9616 52.9333C45.2975 53.0265 45.4164 54.0183 46.0834 53.9483Z" fill="black"/>
<path d="M44.0057 46.0114C44.6704 45.9184 44.5515 44.9263 43.884 44.9963C43.2198 45.0895 43.3387 46.0816 44.0057 46.0114Z" fill="black"/>
<path d="M49.8151 35.1512C50.4797 35.0583 50.3609 34.0662 49.6933 34.1363C49.0292 34.2294 49.148 35.2216 49.8151 35.1512Z" fill="black"/>
<path d="M57.8861 30.6293C58.5506 30.5363 58.4319 29.5441 57.7643 29.6144C57.1002 29.7075 57.219 30.6997 57.8861 30.6293Z" fill="black"/>
<path d="M62.8121 38.1292C63.4766 38.0361 63.3579 37.044 62.6904 37.1141C62.0262 37.2074 62.145 38.1995 62.8121 38.1292Z" fill="black"/>
<path d="M71.4819 41.5638C70.8173 41.6569 70.9361 42.649 71.6036 42.5789C72.2678 42.4856 72.149 41.4935 71.4819 41.5638Z" fill="black"/>
<path d="M69.017 26.9992C69.6815 26.9062 69.5627 25.9141 68.8952 25.9842C68.231 26.0775 68.3498 27.0696 69.017 26.9992Z" fill="black"/>
<path d="M62.0739 23.4849C62.7384 23.3919 62.6196 22.3998 61.9521 22.4699C61.2879 22.5632 61.4067 23.5553 62.0739 23.4849Z" fill="black"/>
<path d="M79.6415 25.8333C80.3061 25.7405 80.1873 24.7483 79.5197 24.8184C78.8556 24.9116 78.9743 25.9038 79.6415 25.8333Z" fill="black"/>
<path d="M88.0587 30.667C88.7233 30.574 88.6046 29.5819 87.937 29.652C87.2728 29.7452 87.3916 30.7373 88.0587 30.667Z" fill="black"/>
<path d="M82.2379 40.3786C82.9024 40.2855 82.7836 39.2934 82.1162 39.3635C81.452 39.4567 81.5708 40.4489 82.2379 40.3786Z" fill="black"/>
</g>
<defs>
<clipPath id="clip0_414_142">
<rect width="63" height="79" fill="white" transform="translate(35.6758) rotate(26.846)"/>
</clipPath>
</defs>
</svg>
