<svg width="396" height="489" viewBox="0 0 396 489" fill="none" xmlns="http://www.w3.org/2000/svg">
<g opacity="0.08" clip-path="url(#clip0_415_7)">
<path d="M195.532 0.0536499C240.363 -0.496946 284.02 14.3828 319.181 42.1976C354.343 70.0123 378.87 109.07 388.651 152.822C389.616 157.167 392.299 162.745 390.099 165.695C387.9 168.646 381.999 166.5 377.654 166.554C371.699 166.554 365.691 166.125 359.79 166.554C353.89 166.983 352.709 164.14 351.744 159.795C349.249 148.159 345.227 136.904 339.781 126.323C315.588 80.1925 278.842 49.4029 227.129 40.4986C146.716 26.3375 70.7565 69.4644 45.5438 150.837C44.1491 155.289 44.4709 161.297 41.0914 163.764C37.7118 166.232 31.7573 164.408 26.983 164.515C21.1894 164.515 15.3422 164.14 9.60233 164.515C3.86242 164.891 4.50615 162.531 5.09623 158.883C7.29933 144.407 11.506 130.307 17.5953 116.99C47.3141 54.0696 95.8082 15.073 164.687 2.46747C174.858 0.60331 185.195 -0.205587 195.532 0.0536499Z" fill="black"/>
<path d="M197.249 56.3225C259.53 56.9126 314.3 97.3038 330.715 154.967C331.681 158.347 333.719 162.423 332.593 165.105C331.466 167.787 326.531 166.393 323.312 166.715C311.672 168.002 299.977 168.753 288.283 169.933C285.601 170.201 285.011 168.485 284.152 166.822C279.334 157.202 273.811 147.95 267.63 139.143C227.772 86.7903 141.191 96.8211 114.798 158.99C110.828 168.27 110.024 168.27 99.7242 166.876C88.4053 165.374 77.0328 164.462 65.6602 163.55C62.6562 163.55 61.5296 163.228 62.4416 159.58C69.4632 133.685 83.7787 110.352 103.684 92.359C123.589 74.3666 148.246 62.4725 174.718 58.0926C182.176 56.9618 189.706 56.3703 197.249 56.3225Z" fill="black"/>
<path d="M355.66 185.65C367.73 185.65 379.8 185.65 391.869 185.65C395.356 185.65 396.268 186.723 396.054 190.048C395.303 200.776 394.713 211.236 394.069 221.803C394.069 225.719 391.279 226.363 388.007 226.363C375.454 226.363 362.902 226.363 350.456 226.363C326.853 225.987 303.41 227.007 280.719 234.945C217.687 257.206 177.615 301.03 161.361 365.989C159.752 372.533 158.786 379.185 157.713 385.836C157.338 388.357 156.426 388.572 154.227 387.767C144.249 384.28 134.217 380.901 124.186 377.575C123.448 377.372 122.759 377.023 122.158 376.549C121.558 376.076 121.058 375.487 120.688 374.817C120.318 374.147 120.086 373.411 120.005 372.65C119.924 371.889 119.996 371.12 120.216 370.387C126.334 317.555 152.508 269.09 193.333 234.999C223.089 209.25 259.769 192.832 298.797 187.795C317.676 185.731 336.679 185.014 355.66 185.65Z" fill="black"/>
<path d="M359.146 244.869H387.095C389.831 244.869 390.367 245.727 389.241 248.302C384.413 259.495 379.746 270.723 375.24 281.988C373.577 286.118 369.875 285.904 366.818 285.904C351.687 285.493 336.578 287.3 321.971 291.268C272.565 305.536 237.106 334.931 221.496 385.407C221.154 387.038 220.243 388.495 218.927 389.517C217.61 390.538 215.973 391.059 214.308 390.985C202.882 390.985 191.455 390.985 180.029 390.985C174.665 390.985 176.918 387.338 177.132 385.192C178.934 367.404 184.123 350.125 192.421 334.287C212.269 297.275 240.218 269.222 280.397 254.685C300.184 247.905 320.956 244.443 341.873 244.44C347.667 244.44 353.46 244.44 359.254 244.44L359.146 244.869Z" fill="black"/>
<path d="M36.4243 183.021C57.9221 182.147 79.4555 183.08 100.797 185.811C128.654 190.263 155.223 200.673 178.688 216.332C182.229 218.639 181.317 219.926 178.688 222.233C169.211 230.922 159.823 239.719 150.525 248.624C149.77 249.547 148.68 250.133 147.493 250.253C146.307 250.374 145.121 250.019 144.195 249.267C124.389 238.141 102.657 230.861 80.1441 227.811C73.6215 226.882 67.045 226.38 60.4568 226.309C42.1105 226.309 23.7643 226.309 5.47169 226.309C1.87754 226.309 0.858303 225.344 0.858303 221.75C0.858303 211.022 0.26822 199.918 0 188.975C0 183.611 1.12652 182.807 6.2227 182.86L36.4243 183.021Z" fill="black"/>
<path d="M199.985 124.017C212.623 124.692 224.879 128.584 235.591 135.325C246.303 142.065 255.116 151.43 261.193 162.531C267.362 173.634 266.557 174.814 255.024 178.623C238.016 184.893 221.68 192.854 206.261 202.386C204.018 204.022 201.289 204.853 198.515 204.746C195.74 204.639 193.083 203.6 190.973 201.795C173.675 189.746 154.597 180.479 134.432 174.332C130.57 173.098 130.14 171.65 131.267 168.217C132.563 164.111 134.365 160.183 136.631 156.523C143.911 146.525 153.435 138.375 164.439 132.729C175.442 127.084 187.618 124.099 199.985 124.017Z" fill="black"/>
<path d="M33.8494 244.976C56.4961 243.672 79.2101 245.788 101.226 251.252C112.999 254.511 124.277 259.347 134.754 265.628C137.221 267.13 137.704 268.363 136.309 270.992C130.48 281.505 124.758 292.09 119.143 302.747C117.695 305.536 116.515 306.126 113.779 304.249C89.3839 287.653 60.1963 279.564 30.7381 281.237C20.0093 281.72 17.8635 279.896 14.2693 269.704C11.8017 262.57 9.28045 255.49 6.5446 248.248C5.47172 245.512 6.22274 244.815 8.8513 244.815L33.8494 244.976Z" fill="black"/>
<path d="M351.046 305.161C354.64 305.697 358.556 304.034 359.576 306.126C360.595 308.218 357.859 311.49 356.357 313.743C351.042 321.765 344.612 328.99 337.26 335.199C314.38 356.239 287.511 372.473 258.242 382.939C253.793 384.333 249.235 385.356 244.617 385.997C241.773 386.48 241.237 385.997 242.149 382.993C246.219 370.517 252.872 359.039 261.675 349.307C272.915 336.407 286.601 325.864 301.941 318.287C317.281 310.709 333.971 306.248 351.046 305.161Z" fill="black"/>
<path d="M30.4697 299.743C57.4755 298.246 84.1714 306.108 106.054 322.004C107.504 322.879 108.612 324.222 109.197 325.811C109.782 327.4 109.809 329.141 109.273 330.747C106.591 341.475 103.908 352.203 101.763 362.931C100.797 367.759 98.8658 365.721 96.3982 364.433C72.4407 350.271 51.7469 331.205 35.6732 308.486C33.3437 305.97 31.5707 302.991 30.4697 299.743Z" fill="black"/>
</g>
<defs>
<clipPath id="clip0_415_7">
<rect width="396" height="489" fill="white"/>
</clipPath>
</defs>
</svg>
